<mxfile host="app.diagrams.net" agent="Mozilla/5.0 (Windows NT 10.0; Win64; x64) AppleWebKit/537.36 (KHTML, like Gecko) Chrome/140.0.0.0 Safari/537.36" version="28.2.7">
  <diagram name="Page-1" id="ql-YpmrBoX1JBx6I8yxn">
    <mxGraphModel dx="4360" dy="2325" grid="1" gridSize="10" guides="1" tooltips="1" connect="1" arrows="1" fold="1" page="1" pageScale="1" pageWidth="827" pageHeight="1169" math="0" shadow="0">
      <root>
        <mxCell id="0" />
        <mxCell id="1" parent="0" />
        <mxCell id="n5rFsvowramPieZqeoaz-2" value="" style="verticalLabelPosition=bottom;html=1;verticalAlign=top;align=center;strokeWidth=1;shape=mxgraph.floorplan.desk_corner_2;rounded=0;shadow=0;comic=0;fontFamily=Verdana;fontSize=12;flipH=1;flipV=1;" vertex="1" parent="1">
          <mxGeometry x="1919" y="947.0000000000001" width="192" height="97" as="geometry" />
        </mxCell>
        <mxCell id="n5rFsvowramPieZqeoaz-3" value="" style="verticalLabelPosition=bottom;html=1;verticalAlign=top;align=center;strokeWidth=1;shape=mxgraph.floorplan.office_chair;shadow=0;rounded=0;comic=0;fontFamily=Verdana;fontSize=12;" vertex="1" parent="1">
          <mxGeometry x="120" y="1479" width="40" height="43" as="geometry" />
        </mxCell>
        <mxCell id="n5rFsvowramPieZqeoaz-4" value="" style="shape=rect;shadow=0;rounded=0;comic=0;fontFamily=Verdana;fontSize=12;align=center;html=1;" vertex="1" parent="1">
          <mxGeometry x="30" y="1499" width="300" height="50" as="geometry" />
        </mxCell>
        <mxCell id="n5rFsvowramPieZqeoaz-5" value="" style="verticalLabelPosition=bottom;html=1;verticalAlign=top;align=center;strokeWidth=1;shape=mxgraph.floorplan.office_chair;shadow=0;rounded=0;comic=0;fontFamily=Verdana;fontSize=12;" vertex="1" parent="1">
          <mxGeometry x="1269" y="1390" width="40" height="43" as="geometry" />
        </mxCell>
        <mxCell id="n5rFsvowramPieZqeoaz-6" value="" style="verticalLabelPosition=bottom;html=1;verticalAlign=top;align=center;strokeWidth=1;shape=mxgraph.floorplan.office_chair;shadow=0;direction=west;rounded=0;comic=0;fontFamily=Verdana;fontSize=12;" vertex="1" parent="1">
          <mxGeometry x="1269" y="1487" width="40" height="43" as="geometry" />
        </mxCell>
        <mxCell id="n5rFsvowramPieZqeoaz-7" value="" style="verticalLabelPosition=bottom;html=1;verticalAlign=top;align=center;strokeWidth=1;shape=mxgraph.floorplan.office_chair;shadow=0;direction=north;rounded=0;comic=0;fontFamily=Verdana;fontSize=12;" vertex="1" parent="1">
          <mxGeometry x="1219" y="1440" width="43" height="40" as="geometry" />
        </mxCell>
        <mxCell id="n5rFsvowramPieZqeoaz-8" value="" style="verticalLabelPosition=bottom;html=1;verticalAlign=top;align=center;strokeWidth=1;shape=mxgraph.floorplan.office_chair;shadow=0;direction=south;rounded=0;comic=0;fontFamily=Verdana;fontSize=12;" vertex="1" parent="1">
          <mxGeometry x="1496" y="1440" width="43" height="40" as="geometry" />
        </mxCell>
        <mxCell id="n5rFsvowramPieZqeoaz-9" value="" style="verticalLabelPosition=bottom;html=1;verticalAlign=top;align=center;strokeWidth=1;shape=mxgraph.floorplan.office_chair;shadow=0;rounded=0;comic=0;fontFamily=Verdana;fontSize=12;" vertex="1" parent="1">
          <mxGeometry x="1329" y="1390" width="40" height="43" as="geometry" />
        </mxCell>
        <mxCell id="n5rFsvowramPieZqeoaz-10" value="" style="verticalLabelPosition=bottom;html=1;verticalAlign=top;align=center;strokeWidth=1;shape=mxgraph.floorplan.office_chair;shadow=0;direction=west;rounded=0;comic=0;fontFamily=Verdana;fontSize=12;" vertex="1" parent="1">
          <mxGeometry x="1329" y="1487" width="40" height="43" as="geometry" />
        </mxCell>
        <mxCell id="n5rFsvowramPieZqeoaz-11" value="" style="verticalLabelPosition=bottom;html=1;verticalAlign=top;align=center;strokeWidth=1;shape=mxgraph.floorplan.office_chair;shadow=0;rounded=0;comic=0;fontFamily=Verdana;fontSize=12;" vertex="1" parent="1">
          <mxGeometry x="1389" y="1390" width="40" height="43" as="geometry" />
        </mxCell>
        <mxCell id="n5rFsvowramPieZqeoaz-12" value="" style="verticalLabelPosition=bottom;html=1;verticalAlign=top;align=center;strokeWidth=1;shape=mxgraph.floorplan.office_chair;shadow=0;direction=west;rounded=0;comic=0;fontFamily=Verdana;fontSize=12;" vertex="1" parent="1">
          <mxGeometry x="1389" y="1487" width="40" height="43" as="geometry" />
        </mxCell>
        <mxCell id="n5rFsvowramPieZqeoaz-13" value="" style="verticalLabelPosition=bottom;html=1;verticalAlign=top;align=center;strokeWidth=1;shape=mxgraph.floorplan.office_chair;shadow=0;rounded=0;comic=0;fontFamily=Verdana;fontSize=12;" vertex="1" parent="1">
          <mxGeometry x="1449" y="1390" width="40" height="43" as="geometry" />
        </mxCell>
        <mxCell id="n5rFsvowramPieZqeoaz-14" value="" style="verticalLabelPosition=bottom;html=1;verticalAlign=top;align=center;strokeWidth=1;shape=mxgraph.floorplan.office_chair;shadow=0;direction=west;rounded=0;comic=0;fontFamily=Verdana;fontSize=12;" vertex="1" parent="1">
          <mxGeometry x="1449" y="1487" width="40" height="43" as="geometry" />
        </mxCell>
        <mxCell id="n5rFsvowramPieZqeoaz-15" value="" style="shape=ellipse;fillColor=#ffffff;strokeColor=#000000;shadow=0;rounded=0;comic=0;fontFamily=Verdana;fontSize=12;align=center;html=1;" vertex="1" parent="1">
          <mxGeometry x="1239" y="1410" width="280" height="100" as="geometry" />
        </mxCell>
        <mxCell id="n5rFsvowramPieZqeoaz-16" value="" style="group" vertex="1" connectable="0" parent="1">
          <mxGeometry x="543" y="1479" width="80" height="70" as="geometry" />
        </mxCell>
        <mxCell id="n5rFsvowramPieZqeoaz-17" value="" style="verticalLabelPosition=bottom;html=1;verticalAlign=top;align=center;strokeWidth=1;shape=mxgraph.floorplan.office_chair;shadow=0;rounded=0;comic=0;fontFamily=Verdana;fontSize=12;" vertex="1" parent="n5rFsvowramPieZqeoaz-16">
          <mxGeometry x="20" width="40" height="43" as="geometry" />
        </mxCell>
        <mxCell id="n5rFsvowramPieZqeoaz-18" value="" style="shape=rect;shadow=0;rounded=0;comic=0;fontFamily=Verdana;fontSize=12;align=center;html=1;" vertex="1" parent="n5rFsvowramPieZqeoaz-16">
          <mxGeometry y="20" width="80" height="50" as="geometry" />
        </mxCell>
        <mxCell id="n5rFsvowramPieZqeoaz-19" value="" style="verticalLabelPosition=bottom;html=1;verticalAlign=top;align=center;strokeWidth=1;shape=mxgraph.floorplan.workstation;shadow=0;flipV=1;rounded=0;comic=0;fontFamily=Verdana;fontSize=12;" vertex="1" parent="n5rFsvowramPieZqeoaz-16">
          <mxGeometry x="15" y="30" width="50" height="40" as="geometry" />
        </mxCell>
        <mxCell id="n5rFsvowramPieZqeoaz-20" value="" style="group;rotation=90;" vertex="1" connectable="0" parent="1">
          <mxGeometry x="25" y="1054" width="80" height="70" as="geometry" />
        </mxCell>
        <mxCell id="n5rFsvowramPieZqeoaz-21" value="" style="verticalLabelPosition=bottom;html=1;verticalAlign=top;align=center;strokeWidth=1;shape=mxgraph.floorplan.office_chair;shadow=0;rounded=0;comic=0;fontFamily=Verdana;fontSize=12;rotation=90;" vertex="1" parent="n5rFsvowramPieZqeoaz-20">
          <mxGeometry x="34" y="14" width="40" height="43" as="geometry" />
        </mxCell>
        <mxCell id="n5rFsvowramPieZqeoaz-22" value="" style="shape=rect;shadow=0;rounded=0;comic=0;fontFamily=Verdana;fontSize=12;align=center;html=1;rotation=90;" vertex="1" parent="n5rFsvowramPieZqeoaz-20">
          <mxGeometry x="-10" y="10" width="80" height="50" as="geometry" />
        </mxCell>
        <mxCell id="n5rFsvowramPieZqeoaz-23" value="" style="verticalLabelPosition=bottom;html=1;verticalAlign=top;align=center;strokeWidth=1;shape=mxgraph.floorplan.workstation;shadow=0;flipV=1;rounded=0;comic=0;fontFamily=Verdana;fontSize=12;rotation=90;" vertex="1" parent="n5rFsvowramPieZqeoaz-20">
          <mxGeometry y="15" width="50" height="40" as="geometry" />
        </mxCell>
        <mxCell id="n5rFsvowramPieZqeoaz-24" value="" style="group;rotation=180;" vertex="1" connectable="0" parent="1">
          <mxGeometry x="1957" y="360.0000000000001" width="80" height="70" as="geometry" />
        </mxCell>
        <mxCell id="n5rFsvowramPieZqeoaz-25" value="" style="verticalLabelPosition=bottom;html=1;verticalAlign=top;align=center;strokeWidth=1;shape=mxgraph.floorplan.office_chair;shadow=0;rounded=0;comic=0;fontFamily=Verdana;fontSize=12;rotation=180;" vertex="1" parent="n5rFsvowramPieZqeoaz-24">
          <mxGeometry x="20" y="28" width="40" height="43" as="geometry" />
        </mxCell>
        <mxCell id="n5rFsvowramPieZqeoaz-26" value="" style="shape=rect;shadow=0;rounded=0;comic=0;fontFamily=Verdana;fontSize=12;align=center;html=1;rotation=180;" vertex="1" parent="n5rFsvowramPieZqeoaz-24">
          <mxGeometry width="80" height="50" as="geometry" />
        </mxCell>
        <mxCell id="n5rFsvowramPieZqeoaz-27" value="" style="verticalLabelPosition=bottom;html=1;verticalAlign=top;align=center;strokeWidth=1;shape=mxgraph.floorplan.workstation;shadow=0;flipV=1;rounded=0;comic=0;fontFamily=Verdana;fontSize=12;rotation=180;" vertex="1" parent="n5rFsvowramPieZqeoaz-24">
          <mxGeometry x="15" width="50" height="40" as="geometry" />
        </mxCell>
        <mxCell id="n5rFsvowramPieZqeoaz-28" value="" style="verticalLabelPosition=bottom;html=1;verticalAlign=top;align=center;strokeWidth=1;shape=mxgraph.floorplan.office_chair;shadow=0;rounded=0;comic=0;fontFamily=Verdana;fontSize=12;" vertex="1" parent="1">
          <mxGeometry x="661" y="806.0000000000001" width="40" height="43" as="geometry" />
        </mxCell>
        <mxCell id="n5rFsvowramPieZqeoaz-29" value="" style="verticalLabelPosition=bottom;html=1;verticalAlign=top;align=center;strokeWidth=1;shape=mxgraph.floorplan.office_chair;shadow=0;direction=west;rounded=0;comic=0;fontFamily=Verdana;fontSize=12;" vertex="1" parent="1">
          <mxGeometry x="661" y="903.0000000000001" width="40" height="43" as="geometry" />
        </mxCell>
        <mxCell id="n5rFsvowramPieZqeoaz-30" value="" style="verticalLabelPosition=bottom;html=1;verticalAlign=top;align=center;strokeWidth=1;shape=mxgraph.floorplan.office_chair;shadow=0;direction=north;rounded=0;comic=0;fontFamily=Verdana;fontSize=12;" vertex="1" parent="1">
          <mxGeometry x="611" y="856.0000000000001" width="43" height="40" as="geometry" />
        </mxCell>
        <mxCell id="n5rFsvowramPieZqeoaz-31" value="" style="verticalLabelPosition=bottom;html=1;verticalAlign=top;align=center;strokeWidth=1;shape=mxgraph.floorplan.office_chair;shadow=0;direction=south;rounded=0;comic=0;fontFamily=Verdana;fontSize=12;" vertex="1" parent="1">
          <mxGeometry x="708" y="856.0000000000001" width="43" height="40" as="geometry" />
        </mxCell>
        <mxCell id="n5rFsvowramPieZqeoaz-32" value="" style="shape=rect;shadow=0;rounded=0;comic=0;fontFamily=Verdana;fontSize=12;align=center;html=1;" vertex="1" parent="1">
          <mxGeometry x="631" y="826.0000000000001" width="100" height="100" as="geometry" />
        </mxCell>
        <mxCell id="n5rFsvowramPieZqeoaz-33" value="" style="verticalLabelPosition=bottom;html=1;verticalAlign=top;align=center;strokeWidth=1;shape=mxgraph.floorplan.office_chair;fillColor=#ffffff;strokeColor=#000000;shadow=0;rounded=0;comic=0;fontFamily=Verdana;fontSize=12;" vertex="1" parent="1">
          <mxGeometry x="661" y="1046" width="40" height="43" as="geometry" />
        </mxCell>
        <mxCell id="n5rFsvowramPieZqeoaz-34" value="" style="verticalLabelPosition=bottom;html=1;verticalAlign=top;align=center;strokeWidth=1;shape=mxgraph.floorplan.office_chair;fillColor=#ffffff;strokeColor=#000000;shadow=0;direction=west;rounded=0;comic=0;fontFamily=Verdana;fontSize=12;" vertex="1" parent="1">
          <mxGeometry x="661" y="1143" width="40" height="43" as="geometry" />
        </mxCell>
        <mxCell id="n5rFsvowramPieZqeoaz-35" value="" style="verticalLabelPosition=bottom;html=1;verticalAlign=top;align=center;strokeWidth=1;shape=mxgraph.floorplan.office_chair;fillColor=#ffffff;strokeColor=#000000;shadow=0;direction=north;rounded=0;comic=0;fontFamily=Verdana;fontSize=12;" vertex="1" parent="1">
          <mxGeometry x="611" y="1096" width="43" height="40" as="geometry" />
        </mxCell>
        <mxCell id="n5rFsvowramPieZqeoaz-36" value="" style="verticalLabelPosition=bottom;html=1;verticalAlign=top;align=center;strokeWidth=1;shape=mxgraph.floorplan.office_chair;fillColor=#ffffff;strokeColor=#000000;shadow=0;direction=south;rounded=0;comic=0;fontFamily=Verdana;fontSize=12;" vertex="1" parent="1">
          <mxGeometry x="708" y="1096" width="43" height="40" as="geometry" />
        </mxCell>
        <mxCell id="n5rFsvowramPieZqeoaz-37" value="" style="shape=rect;shadow=0;rounded=0;comic=0;fontFamily=Verdana;fontSize=12;align=center;html=1;" vertex="1" parent="1">
          <mxGeometry x="631" y="1066" width="100" height="100" as="geometry" />
        </mxCell>
        <mxCell id="n5rFsvowramPieZqeoaz-38" value="" style="verticalLabelPosition=bottom;html=1;verticalAlign=top;align=center;strokeWidth=1;shape=mxgraph.floorplan.doorRight;rounded=0;shadow=0;comic=0;fontFamily=Verdana;fontSize=12;" vertex="1" parent="1">
          <mxGeometry x="320" y="1357" width="80" height="85" as="geometry" />
        </mxCell>
        <mxCell id="n5rFsvowramPieZqeoaz-39" value="" style="verticalLabelPosition=bottom;html=1;verticalAlign=top;align=center;strokeWidth=1;shape=mxgraph.floorplan.doorLeft;rounded=0;shadow=0;comic=0;fontFamily=Verdana;fontSize=12;" vertex="1" parent="1">
          <mxGeometry x="423" y="1358" width="80" height="85" as="geometry" />
        </mxCell>
        <mxCell id="n5rFsvowramPieZqeoaz-40" value="" style="verticalLabelPosition=bottom;html=1;verticalAlign=top;align=center;strokeWidth=1;shape=mxgraph.floorplan.doorLeft;rounded=0;shadow=0;comic=0;fontFamily=Verdana;fontSize=12;" vertex="1" parent="1">
          <mxGeometry x="871" y="1358" width="80" height="85" as="geometry" />
        </mxCell>
        <mxCell id="n5rFsvowramPieZqeoaz-41" value="" style="verticalLabelPosition=bottom;html=1;verticalAlign=top;align=center;strokeWidth=1;shape=mxgraph.floorplan.wallCorner;fillColor=#000000;rounded=0;shadow=0;comic=0;fontFamily=Verdana;fontSize=12;" vertex="1" parent="1">
          <mxGeometry x="20" y="350.0000000000001" width="100" height="385" as="geometry" />
        </mxCell>
        <mxCell id="n5rFsvowramPieZqeoaz-42" value="" style="verticalLabelPosition=bottom;html=1;verticalAlign=top;align=center;strokeWidth=1;shape=mxgraph.floorplan.wallU;fillColor=#000000;rounded=0;shadow=0;comic=0;fontFamily=Verdana;fontSize=12;rotation=90;" vertex="1" parent="1">
          <mxGeometry x="648" y="-272.9999999999999" width="1210" height="2456" as="geometry" />
        </mxCell>
        <mxCell id="n5rFsvowramPieZqeoaz-43" value="" style="verticalLabelPosition=bottom;html=1;verticalAlign=top;align=center;strokeWidth=1;shape=mxgraph.floorplan.wallU;fillColor=#000000;rounded=0;shadow=0;comic=0;fontFamily=Verdana;fontSize=12;rotation=90;" vertex="1" parent="1">
          <mxGeometry x="416" y="809.0000000000001" width="481" height="335" as="geometry" />
        </mxCell>
        <mxCell id="n5rFsvowramPieZqeoaz-44" value="" style="verticalLabelPosition=bottom;html=1;verticalAlign=top;align=center;strokeWidth=1;shape=mxgraph.floorplan.wallCorner;fillColor=#000000;direction=south;rounded=0;shadow=0;comic=0;fontFamily=Verdana;fontSize=12;" vertex="1" parent="1">
          <mxGeometry x="1901" y="738.0000000000001" width="221" height="266" as="geometry" />
        </mxCell>
        <mxCell id="n5rFsvowramPieZqeoaz-45" value="" style="verticalLabelPosition=bottom;html=1;verticalAlign=top;align=center;strokeWidth=1;shape=mxgraph.floorplan.wallCorner;fillColor=#000000;direction=west;rounded=0;shadow=0;comic=0;fontFamily=Verdana;fontSize=12;" vertex="1" parent="1">
          <mxGeometry x="1680" y="1000.0000000000001" width="442" height="142" as="geometry" />
        </mxCell>
        <mxCell id="n5rFsvowramPieZqeoaz-46" value="" style="verticalLabelPosition=bottom;html=1;verticalAlign=top;align=center;strokeWidth=1;shape=mxgraph.floorplan.wallCorner;fillColor=#000000;direction=north;rounded=0;shadow=0;comic=0;fontFamily=Verdana;fontSize=12;" vertex="1" parent="1">
          <mxGeometry x="1500" y="744.0000000000001" width="186" height="398" as="geometry" />
        </mxCell>
        <mxCell id="n5rFsvowramPieZqeoaz-47" value="" style="verticalLabelPosition=bottom;html=1;verticalAlign=top;align=center;strokeWidth=1;shape=mxgraph.floorplan.doorDouble;rounded=0;shadow=0;comic=0;fontFamily=Verdana;fontSize=12;rotation=-90;" vertex="1" parent="1">
          <mxGeometry x="-15" y="773.0000000000001" width="160" height="85" as="geometry" />
        </mxCell>
        <mxCell id="n5rFsvowramPieZqeoaz-48" value="" style="verticalLabelPosition=bottom;html=1;verticalAlign=top;align=center;strokeWidth=1;shape=mxgraph.floorplan.wall;fillColor=#000000;rounded=0;shadow=0;comic=0;fontFamily=Verdana;fontSize=12;" vertex="1" parent="1">
          <mxGeometry x="21" y="1131" width="204" height="10" as="geometry" />
        </mxCell>
        <mxCell id="n5rFsvowramPieZqeoaz-49" value="" style="verticalLabelPosition=bottom;html=1;verticalAlign=top;align=center;strokeWidth=1;shape=mxgraph.floorplan.wall;fillColor=#000000;direction=south;rounded=0;shadow=0;comic=0;fontFamily=Verdana;fontSize=12;" vertex="1" parent="1">
          <mxGeometry x="220" y="1019.0000000000001" width="10" height="246" as="geometry" />
        </mxCell>
        <mxCell id="n5rFsvowramPieZqeoaz-50" value="" style="verticalLabelPosition=bottom;html=1;verticalAlign=top;align=center;strokeWidth=1;shape=mxgraph.floorplan.wallCorner;fillColor=#000000;direction=south;rounded=0;shadow=0;comic=0;fontFamily=Verdana;fontSize=12;" vertex="1" parent="1">
          <mxGeometry x="25" y="921.0000000000001" width="205" height="17" as="geometry" />
        </mxCell>
        <mxCell id="n5rFsvowramPieZqeoaz-51" value="" style="verticalLabelPosition=bottom;html=1;verticalAlign=top;align=center;strokeWidth=1;shape=mxgraph.floorplan.doorLeft;rounded=0;shadow=0;comic=0;fontFamily=Verdana;fontSize=12;rotation=90;" vertex="1" parent="1">
          <mxGeometry x="144" y="936.0000000000001" width="80" height="85" as="geometry" />
        </mxCell>
        <mxCell id="n5rFsvowramPieZqeoaz-52" value="" style="verticalLabelPosition=bottom;html=1;verticalAlign=top;align=center;strokeWidth=1;shape=mxgraph.floorplan.dresser;rounded=0;shadow=0;comic=0;fontFamily=Verdana;fontSize=12;rotation=90;" vertex="1" parent="1">
          <mxGeometry x="137" y="1048" width="100" height="65" as="geometry" />
        </mxCell>
        <mxCell id="n5rFsvowramPieZqeoaz-53" value="" style="verticalLabelPosition=bottom;html=1;verticalAlign=top;align=center;strokeWidth=1;shape=mxgraph.floorplan.plant;rounded=0;shadow=0;comic=0;fontFamily=Verdana;fontSize=12;" vertex="1" parent="1">
          <mxGeometry x="33" y="936.0000000000001" width="47" height="51" as="geometry" />
        </mxCell>
        <mxCell id="n5rFsvowramPieZqeoaz-54" value="" style="group;rotation=90;" vertex="1" connectable="0" parent="1">
          <mxGeometry x="26" y="1147" width="80" height="70" as="geometry" />
        </mxCell>
        <mxCell id="n5rFsvowramPieZqeoaz-55" value="" style="verticalLabelPosition=bottom;html=1;verticalAlign=top;align=center;strokeWidth=1;shape=mxgraph.floorplan.office_chair;shadow=0;rounded=0;comic=0;fontFamily=Verdana;fontSize=12;rotation=90;" vertex="1" parent="n5rFsvowramPieZqeoaz-54">
          <mxGeometry x="34" y="14" width="40" height="43" as="geometry" />
        </mxCell>
        <mxCell id="n5rFsvowramPieZqeoaz-56" value="" style="shape=rect;shadow=0;rounded=0;comic=0;fontFamily=Verdana;fontSize=12;align=center;html=1;rotation=90;" vertex="1" parent="n5rFsvowramPieZqeoaz-54">
          <mxGeometry x="-10" y="10" width="80" height="50" as="geometry" />
        </mxCell>
        <mxCell id="n5rFsvowramPieZqeoaz-57" value="" style="verticalLabelPosition=bottom;html=1;verticalAlign=top;align=center;strokeWidth=1;shape=mxgraph.floorplan.workstation;shadow=0;flipV=1;rounded=0;comic=0;fontFamily=Verdana;fontSize=12;rotation=90;" vertex="1" parent="n5rFsvowramPieZqeoaz-54">
          <mxGeometry y="15" width="50" height="40" as="geometry" />
        </mxCell>
        <mxCell id="n5rFsvowramPieZqeoaz-58" value="" style="verticalLabelPosition=bottom;html=1;verticalAlign=top;align=center;strokeWidth=1;shape=mxgraph.floorplan.wall;fillColor=#000000;rounded=0;shadow=0;comic=0;fontFamily=Verdana;fontSize=12;" vertex="1" parent="1">
          <mxGeometry x="21" y="1355" width="299" height="10" as="geometry" />
        </mxCell>
        <mxCell id="n5rFsvowramPieZqeoaz-59" value="" style="verticalLabelPosition=bottom;html=1;verticalAlign=top;align=center;strokeWidth=1;shape=mxgraph.floorplan.wall;fillColor=#000000;direction=south;rounded=0;shadow=0;comic=0;fontFamily=Verdana;fontSize=12;" vertex="1" parent="1">
          <mxGeometry x="220" y="1346" width="10" height="18" as="geometry" />
        </mxCell>
        <mxCell id="n5rFsvowramPieZqeoaz-60" value="" style="verticalLabelPosition=bottom;html=1;verticalAlign=top;align=center;strokeWidth=1;shape=mxgraph.floorplan.doorLeft;rounded=0;shadow=0;comic=0;fontFamily=Verdana;fontSize=12;rotation=90;flipV=0;flipH=1;" vertex="1" parent="1">
          <mxGeometry x="144" y="1263" width="80" height="85" as="geometry" />
        </mxCell>
        <mxCell id="n5rFsvowramPieZqeoaz-61" value="" style="verticalLabelPosition=bottom;html=1;verticalAlign=top;align=center;strokeWidth=1;shape=mxgraph.floorplan.dresser;rounded=0;shadow=0;comic=0;fontFamily=Verdana;fontSize=12;rotation=90;" vertex="1" parent="1">
          <mxGeometry x="137" y="1158" width="100" height="65" as="geometry" />
        </mxCell>
        <mxCell id="n5rFsvowramPieZqeoaz-62" value="" style="verticalLabelPosition=bottom;html=1;verticalAlign=top;align=center;strokeWidth=1;shape=mxgraph.floorplan.plant;rounded=0;shadow=0;comic=0;fontFamily=Verdana;fontSize=12;" vertex="1" parent="1">
          <mxGeometry x="36" y="1297" width="47" height="51" as="geometry" />
        </mxCell>
        <mxCell id="n5rFsvowramPieZqeoaz-63" value="" style="verticalLabelPosition=bottom;html=1;verticalAlign=top;align=center;strokeWidth=1;shape=mxgraph.floorplan.workstation;shadow=0;flipV=1;rounded=0;comic=0;fontFamily=Verdana;fontSize=12;" vertex="1" parent="1">
          <mxGeometry x="115" y="1509" width="50" height="40" as="geometry" />
        </mxCell>
        <mxCell id="n5rFsvowramPieZqeoaz-64" value="" style="verticalLabelPosition=bottom;html=1;verticalAlign=top;align=center;strokeWidth=1;shape=mxgraph.floorplan.flat_tv;rounded=0;shadow=0;comic=0;fontFamily=Verdana;fontSize=12;rotation=-165;" vertex="1" parent="1">
          <mxGeometry x="40" y="1532" width="70" height="10" as="geometry" />
        </mxCell>
        <mxCell id="n5rFsvowramPieZqeoaz-65" value="" style="verticalLabelPosition=bottom;html=1;verticalAlign=top;align=center;strokeWidth=1;shape=mxgraph.floorplan.flat_tv;rounded=0;shadow=0;comic=0;fontFamily=Verdana;fontSize=12;rotation=160;" vertex="1" parent="1">
          <mxGeometry x="171" y="1532" width="70" height="10" as="geometry" />
        </mxCell>
        <mxCell id="n5rFsvowramPieZqeoaz-66" value="" style="verticalLabelPosition=bottom;html=1;verticalAlign=top;align=center;strokeWidth=1;shape=mxgraph.floorplan.wall;fillColor=#000000;direction=south;rounded=0;shadow=0;comic=0;fontFamily=Verdana;fontSize=12;" vertex="1" parent="1">
          <mxGeometry x="20" y="896.0000000000001" width="10" height="664" as="geometry" />
        </mxCell>
        <mxCell id="n5rFsvowramPieZqeoaz-67" value="" style="verticalLabelPosition=bottom;html=1;verticalAlign=top;align=center;strokeWidth=1;shape=mxgraph.floorplan.wall;fillColor=#000000;direction=south;rounded=0;shadow=0;comic=0;fontFamily=Verdana;fontSize=12;" vertex="1" parent="1">
          <mxGeometry x="407" y="1364" width="10" height="191" as="geometry" />
        </mxCell>
        <mxCell id="n5rFsvowramPieZqeoaz-68" value="" style="verticalLabelPosition=bottom;html=1;verticalAlign=top;align=center;strokeWidth=1;shape=mxgraph.floorplan.wall;fillColor=#000000;rounded=0;shadow=0;comic=0;fontFamily=Verdana;fontSize=12;" vertex="1" parent="1">
          <mxGeometry x="401" y="1355" width="22" height="10" as="geometry" />
        </mxCell>
        <mxCell id="n5rFsvowramPieZqeoaz-69" value="" style="verticalLabelPosition=bottom;html=1;verticalAlign=top;align=center;strokeWidth=1;shape=mxgraph.floorplan.dresser;rounded=0;shadow=0;comic=0;fontFamily=Verdana;fontSize=12;flipV=1;rotation=90;" vertex="1" parent="1">
          <mxGeometry x="13" y="1383" width="100" height="65" as="geometry" />
        </mxCell>
        <mxCell id="n5rFsvowramPieZqeoaz-70" value="" style="verticalLabelPosition=bottom;html=1;verticalAlign=top;align=center;strokeWidth=1;shape=mxgraph.floorplan.plant;rounded=0;shadow=0;comic=0;fontFamily=Verdana;fontSize=12;" vertex="1" parent="1">
          <mxGeometry x="350" y="1496" width="47" height="51" as="geometry" />
        </mxCell>
        <mxCell id="n5rFsvowramPieZqeoaz-71" value="" style="verticalLabelPosition=bottom;html=1;verticalAlign=top;align=center;strokeWidth=1;shape=mxgraph.floorplan.plant;rounded=0;shadow=0;comic=0;fontFamily=Verdana;fontSize=12;" vertex="1" parent="1">
          <mxGeometry x="423" y="1494" width="47" height="51" as="geometry" />
        </mxCell>
        <mxCell id="n5rFsvowramPieZqeoaz-72" value="" style="verticalLabelPosition=bottom;html=1;verticalAlign=top;align=center;strokeWidth=1;shape=mxgraph.floorplan.wall;fillColor=#000000;direction=south;rounded=0;shadow=0;comic=0;fontFamily=Verdana;fontSize=12;" vertex="1" parent="1">
          <mxGeometry x="630" y="1364" width="10" height="191" as="geometry" />
        </mxCell>
        <mxCell id="n5rFsvowramPieZqeoaz-73" value="" style="verticalLabelPosition=bottom;html=1;verticalAlign=top;align=center;strokeWidth=1;shape=mxgraph.floorplan.wall;fillColor=#000000;rounded=0;shadow=0;comic=0;fontFamily=Verdana;fontSize=12;" vertex="1" parent="1">
          <mxGeometry x="503" y="1355" width="144" height="10" as="geometry" />
        </mxCell>
        <mxCell id="n5rFsvowramPieZqeoaz-74" value="" style="verticalLabelPosition=bottom;html=1;verticalAlign=top;align=center;strokeWidth=1;shape=mxgraph.floorplan.doorLeft;rounded=0;shadow=0;comic=0;fontFamily=Verdana;fontSize=12;" vertex="1" parent="1">
          <mxGeometry x="647" y="1358" width="80" height="85" as="geometry" />
        </mxCell>
        <mxCell id="n5rFsvowramPieZqeoaz-75" value="" style="group" vertex="1" connectable="0" parent="1">
          <mxGeometry x="770" y="1480" width="80" height="70" as="geometry" />
        </mxCell>
        <mxCell id="n5rFsvowramPieZqeoaz-76" value="" style="verticalLabelPosition=bottom;html=1;verticalAlign=top;align=center;strokeWidth=1;shape=mxgraph.floorplan.office_chair;shadow=0;rounded=0;comic=0;fontFamily=Verdana;fontSize=12;" vertex="1" parent="n5rFsvowramPieZqeoaz-75">
          <mxGeometry x="20" width="40" height="43" as="geometry" />
        </mxCell>
        <mxCell id="n5rFsvowramPieZqeoaz-77" value="" style="shape=rect;shadow=0;rounded=0;comic=0;fontFamily=Verdana;fontSize=12;align=center;html=1;" vertex="1" parent="n5rFsvowramPieZqeoaz-75">
          <mxGeometry y="20" width="80" height="50" as="geometry" />
        </mxCell>
        <mxCell id="n5rFsvowramPieZqeoaz-78" value="" style="verticalLabelPosition=bottom;html=1;verticalAlign=top;align=center;strokeWidth=1;shape=mxgraph.floorplan.workstation;shadow=0;flipV=1;rounded=0;comic=0;fontFamily=Verdana;fontSize=12;" vertex="1" parent="n5rFsvowramPieZqeoaz-75">
          <mxGeometry x="15" y="30" width="50" height="40" as="geometry" />
        </mxCell>
        <mxCell id="n5rFsvowramPieZqeoaz-79" value="" style="verticalLabelPosition=bottom;html=1;verticalAlign=top;align=center;strokeWidth=1;shape=mxgraph.floorplan.plant;rounded=0;shadow=0;comic=0;fontFamily=Verdana;fontSize=12;" vertex="1" parent="1">
          <mxGeometry x="646" y="1494" width="47" height="51" as="geometry" />
        </mxCell>
        <mxCell id="n5rFsvowramPieZqeoaz-80" value="" style="verticalLabelPosition=bottom;html=1;verticalAlign=top;align=center;strokeWidth=1;shape=mxgraph.floorplan.wall;fillColor=#000000;direction=south;rounded=0;shadow=0;comic=0;fontFamily=Verdana;fontSize=12;" vertex="1" parent="1">
          <mxGeometry x="855" y="1365" width="10" height="191" as="geometry" />
        </mxCell>
        <mxCell id="n5rFsvowramPieZqeoaz-81" value="" style="verticalLabelPosition=bottom;html=1;verticalAlign=top;align=center;strokeWidth=1;shape=mxgraph.floorplan.wall;fillColor=#000000;rounded=0;shadow=0;comic=0;fontFamily=Verdana;fontSize=12;" vertex="1" parent="1">
          <mxGeometry x="727" y="1355" width="144" height="10" as="geometry" />
        </mxCell>
        <mxCell id="n5rFsvowramPieZqeoaz-82" value="" style="verticalLabelPosition=bottom;html=1;verticalAlign=top;align=center;strokeWidth=1;shape=mxgraph.floorplan.wall;fillColor=#000000;rounded=0;shadow=0;comic=0;fontFamily=Verdana;fontSize=12;" vertex="1" parent="1">
          <mxGeometry x="951" y="1355" width="129" height="10" as="geometry" />
        </mxCell>
        <mxCell id="n5rFsvowramPieZqeoaz-83" value="" style="verticalLabelPosition=bottom;html=1;verticalAlign=top;align=center;strokeWidth=1;shape=mxgraph.floorplan.plant;rounded=0;shadow=0;comic=0;fontFamily=Verdana;fontSize=12;" vertex="1" parent="1">
          <mxGeometry x="871" y="1499" width="47" height="51" as="geometry" />
        </mxCell>
        <mxCell id="n5rFsvowramPieZqeoaz-84" value="" style="verticalLabelPosition=bottom;html=1;verticalAlign=top;align=center;strokeWidth=1;shape=mxgraph.floorplan.dresser;rounded=0;shadow=0;comic=0;fontFamily=Verdana;fontSize=12;rotation=0;" vertex="1" parent="1">
          <mxGeometry x="530" y="1365" width="100" height="65" as="geometry" />
        </mxCell>
        <mxCell id="n5rFsvowramPieZqeoaz-85" value="" style="verticalLabelPosition=bottom;html=1;verticalAlign=top;align=center;strokeWidth=1;shape=mxgraph.floorplan.dresser;rounded=0;shadow=0;comic=0;fontFamily=Verdana;fontSize=12;rotation=0;" vertex="1" parent="1">
          <mxGeometry x="754" y="1365" width="100" height="65" as="geometry" />
        </mxCell>
        <mxCell id="n5rFsvowramPieZqeoaz-86" value="" style="verticalLabelPosition=bottom;html=1;verticalAlign=top;align=center;strokeWidth=1;shape=mxgraph.floorplan.dresser;rounded=0;shadow=0;comic=0;fontFamily=Verdana;fontSize=12;rotation=0;" vertex="1" parent="1">
          <mxGeometry x="980" y="1365" width="100" height="65" as="geometry" />
        </mxCell>
        <mxCell id="n5rFsvowramPieZqeoaz-87" value="" style="verticalLabelPosition=bottom;html=1;verticalAlign=top;align=center;strokeWidth=1;shape=mxgraph.floorplan.wallCorner;fillColor=#000000;rounded=0;shadow=0;comic=0;fontFamily=Verdana;fontSize=12;" vertex="1" parent="1">
          <mxGeometry x="1079" y="1304" width="21" height="250" as="geometry" />
        </mxCell>
        <mxCell id="n5rFsvowramPieZqeoaz-88" value="" style="verticalLabelPosition=bottom;html=1;verticalAlign=top;align=center;strokeWidth=1;shape=mxgraph.floorplan.wallCorner;fillColor=#000000;direction=south;rounded=0;shadow=0;comic=0;fontFamily=Verdana;fontSize=12;" vertex="1" parent="1">
          <mxGeometry x="1260" y="1304" width="330" height="254" as="geometry" />
        </mxCell>
        <mxCell id="n5rFsvowramPieZqeoaz-89" value="" style="verticalLabelPosition=bottom;html=1;verticalAlign=top;align=center;strokeWidth=1;shape=mxgraph.floorplan.doorDouble;rounded=0;shadow=0;comic=0;fontFamily=Verdana;fontSize=12;" vertex="1" parent="1">
          <mxGeometry x="1100" y="1307" width="160" height="85" as="geometry" />
        </mxCell>
        <mxCell id="n5rFsvowramPieZqeoaz-90" value="" style="verticalLabelPosition=bottom;html=1;verticalAlign=top;align=center;strokeWidth=1;shape=mxgraph.floorplan.plant;rounded=0;shadow=0;comic=0;fillColor=#FFFFFF;fontFamily=Verdana;fontSize=12;" vertex="1" parent="1">
          <mxGeometry x="1100" y="1487" width="47" height="51" as="geometry" />
        </mxCell>
        <mxCell id="n5rFsvowramPieZqeoaz-91" value="" style="verticalLabelPosition=bottom;html=1;verticalAlign=top;align=center;strokeWidth=1;shape=mxgraph.floorplan.plant;rounded=0;shadow=0;comic=0;fontFamily=Verdana;fontSize=12;" vertex="1" parent="1">
          <mxGeometry x="1519" y="1318" width="47" height="51" as="geometry" />
        </mxCell>
        <mxCell id="n5rFsvowramPieZqeoaz-92" value="" style="verticalLabelPosition=bottom;html=1;verticalAlign=top;align=center;strokeWidth=1;shape=mxgraph.floorplan.plant;rounded=0;shadow=0;comic=0;fontFamily=Verdana;fontSize=12;" vertex="1" parent="1">
          <mxGeometry x="1520" y="1494" width="47" height="51" as="geometry" />
        </mxCell>
        <mxCell id="n5rFsvowramPieZqeoaz-93" value="" style="verticalLabelPosition=bottom;html=1;verticalAlign=top;align=center;strokeWidth=1;shape=mxgraph.floorplan.window;rounded=0;shadow=0;comic=0;fontFamily=Verdana;fontSize=12;" vertex="1" parent="1">
          <mxGeometry x="1280" y="1304" width="120" height="10" as="geometry" />
        </mxCell>
        <mxCell id="n5rFsvowramPieZqeoaz-94" value="" style="verticalLabelPosition=bottom;html=1;verticalAlign=top;align=center;strokeWidth=1;shape=mxgraph.floorplan.window;rounded=0;shadow=0;comic=0;fontFamily=Verdana;fontSize=12;" vertex="1" parent="1">
          <mxGeometry x="1420" y="1304" width="110" height="10" as="geometry" />
        </mxCell>
        <mxCell id="n5rFsvowramPieZqeoaz-95" value="" style="verticalLabelPosition=bottom;html=1;verticalAlign=top;align=center;strokeWidth=1;shape=mxgraph.floorplan.wall;fillColor=#000000;rounded=0;shadow=0;comic=0;fontFamily=Verdana;fontSize=12;" vertex="1" parent="1">
          <mxGeometry x="1590" y="1355" width="10" height="10" as="geometry" />
        </mxCell>
        <mxCell id="n5rFsvowramPieZqeoaz-96" value="" style="verticalLabelPosition=bottom;html=1;verticalAlign=top;align=center;strokeWidth=1;shape=mxgraph.floorplan.doorLeft;rounded=0;shadow=0;comic=0;fontFamily=Verdana;fontSize=12;" vertex="1" parent="1">
          <mxGeometry x="1600" y="1358" width="80" height="85" as="geometry" />
        </mxCell>
        <mxCell id="n5rFsvowramPieZqeoaz-97" value="" style="verticalLabelPosition=bottom;html=1;verticalAlign=top;align=center;strokeWidth=1;shape=mxgraph.floorplan.wall;fillColor=#000000;rounded=0;shadow=0;comic=0;fontFamily=Verdana;fontSize=12;" vertex="1" parent="1">
          <mxGeometry x="1680" y="1355" width="270" height="10" as="geometry" />
        </mxCell>
        <mxCell id="n5rFsvowramPieZqeoaz-98" value="" style="verticalLabelPosition=bottom;html=1;verticalAlign=top;align=center;strokeWidth=1;shape=mxgraph.floorplan.wall;fillColor=#000000;direction=south;rounded=0;shadow=0;comic=0;fontFamily=Verdana;fontSize=12;" vertex="1" parent="1">
          <mxGeometry x="1935" y="1365" width="10" height="191" as="geometry" />
        </mxCell>
        <mxCell id="n5rFsvowramPieZqeoaz-99" value="" style="group;rotation=-90;" vertex="1" connectable="0" parent="1">
          <mxGeometry x="1859" y="1391" width="110" height="70" as="geometry" />
        </mxCell>
        <mxCell id="n5rFsvowramPieZqeoaz-100" value="" style="verticalLabelPosition=bottom;html=1;verticalAlign=top;align=center;strokeWidth=1;shape=mxgraph.floorplan.office_chair;shadow=0;rounded=0;comic=0;fontFamily=Verdana;fontSize=12;rotation=-90;" vertex="1" parent="n5rFsvowramPieZqeoaz-99">
          <mxGeometry x="7" y="14" width="40" height="43" as="geometry" />
        </mxCell>
        <mxCell id="n5rFsvowramPieZqeoaz-101" value="" style="shape=rect;shadow=0;rounded=0;comic=0;fontFamily=Verdana;fontSize=12;align=center;html=1;rotation=-90;" vertex="1" parent="n5rFsvowramPieZqeoaz-99">
          <mxGeometry x="-10" y="10" width="120" height="50" as="geometry" />
        </mxCell>
        <mxCell id="n5rFsvowramPieZqeoaz-102" value="" style="verticalLabelPosition=bottom;html=1;verticalAlign=top;align=center;strokeWidth=1;shape=mxgraph.floorplan.workstation;shadow=0;flipV=1;rounded=0;comic=0;fontFamily=Verdana;fontSize=12;rotation=-90;" vertex="1" parent="n5rFsvowramPieZqeoaz-99">
          <mxGeometry x="30" y="15" width="50" height="40" as="geometry" />
        </mxCell>
        <mxCell id="n5rFsvowramPieZqeoaz-103" value="" style="verticalLabelPosition=bottom;html=1;verticalAlign=top;align=center;strokeWidth=1;shape=mxgraph.floorplan.office_chair;shadow=0;rounded=0;comic=0;fontFamily=Verdana;fontSize=12;" vertex="1" parent="1">
          <mxGeometry x="1725" y="1429" width="40" height="43" as="geometry" />
        </mxCell>
        <mxCell id="n5rFsvowramPieZqeoaz-104" value="" style="verticalLabelPosition=bottom;html=1;verticalAlign=top;align=center;strokeWidth=1;shape=mxgraph.floorplan.office_chair;shadow=0;direction=north;rounded=0;comic=0;fontFamily=Verdana;fontSize=12;" vertex="1" parent="1">
          <mxGeometry x="1675" y="1479" width="43" height="40" as="geometry" />
        </mxCell>
        <mxCell id="n5rFsvowramPieZqeoaz-105" value="" style="verticalLabelPosition=bottom;html=1;verticalAlign=top;align=center;strokeWidth=1;shape=mxgraph.floorplan.office_chair;shadow=0;direction=south;rounded=0;comic=0;fontFamily=Verdana;fontSize=12;" vertex="1" parent="1">
          <mxGeometry x="1772" y="1479" width="43" height="40" as="geometry" />
        </mxCell>
        <mxCell id="n5rFsvowramPieZqeoaz-106" value="" style="shape=rect;shadow=0;rounded=0;comic=0;fontFamily=Verdana;fontSize=12;align=center;html=1;" vertex="1" parent="1">
          <mxGeometry x="1695" y="1449" width="100" height="100" as="geometry" />
        </mxCell>
        <mxCell id="n5rFsvowramPieZqeoaz-107" value="" style="verticalLabelPosition=bottom;html=1;verticalAlign=top;align=center;strokeWidth=1;shape=mxgraph.floorplan.plant;rounded=0;shadow=0;comic=0;fontFamily=Verdana;fontSize=12;" vertex="1" parent="1">
          <mxGeometry x="1595" y="1497" width="47" height="51" as="geometry" />
        </mxCell>
        <mxCell id="n5rFsvowramPieZqeoaz-108" value="" style="verticalLabelPosition=bottom;html=1;verticalAlign=top;align=center;strokeWidth=1;shape=mxgraph.floorplan.plant;rounded=0;shadow=0;comic=0;fillColor=#FFFFFF;fontFamily=Verdana;fontSize=12;" vertex="1" parent="1">
          <mxGeometry x="1883" y="1495" width="47" height="51" as="geometry" />
        </mxCell>
        <mxCell id="n5rFsvowramPieZqeoaz-109" value="" style="group" vertex="1" connectable="0" parent="1">
          <mxGeometry x="2070" y="1479" width="80" height="70" as="geometry" />
        </mxCell>
        <mxCell id="n5rFsvowramPieZqeoaz-110" value="" style="verticalLabelPosition=bottom;html=1;verticalAlign=top;align=center;strokeWidth=1;shape=mxgraph.floorplan.office_chair;shadow=0;rounded=0;comic=0;fontFamily=Verdana;fontSize=12;" vertex="1" parent="n5rFsvowramPieZqeoaz-109">
          <mxGeometry x="20" width="40" height="43" as="geometry" />
        </mxCell>
        <mxCell id="n5rFsvowramPieZqeoaz-111" value="" style="shape=rect;shadow=0;rounded=0;comic=0;fontFamily=Verdana;fontSize=12;align=center;html=1;" vertex="1" parent="n5rFsvowramPieZqeoaz-109">
          <mxGeometry y="20" width="80" height="50" as="geometry" />
        </mxCell>
        <mxCell id="n5rFsvowramPieZqeoaz-112" value="" style="verticalLabelPosition=bottom;html=1;verticalAlign=top;align=center;strokeWidth=1;shape=mxgraph.floorplan.workstation;shadow=0;flipV=1;rounded=0;comic=0;fontFamily=Verdana;fontSize=12;" vertex="1" parent="n5rFsvowramPieZqeoaz-109">
          <mxGeometry x="15" y="30" width="50" height="40" as="geometry" />
        </mxCell>
        <mxCell id="n5rFsvowramPieZqeoaz-113" value="" style="verticalLabelPosition=bottom;html=1;verticalAlign=top;align=center;strokeWidth=1;shape=mxgraph.floorplan.doorLeft;rounded=0;shadow=0;comic=0;fontFamily=Verdana;fontSize=12;" vertex="1" parent="1">
          <mxGeometry x="1950" y="1358" width="80" height="85" as="geometry" />
        </mxCell>
        <mxCell id="n5rFsvowramPieZqeoaz-114" value="" style="verticalLabelPosition=bottom;html=1;verticalAlign=top;align=center;strokeWidth=1;shape=mxgraph.floorplan.plant;rounded=0;shadow=0;comic=0;fontFamily=Verdana;fontSize=12;" vertex="1" parent="1">
          <mxGeometry x="1950" y="1494" width="47" height="51" as="geometry" />
        </mxCell>
        <mxCell id="n5rFsvowramPieZqeoaz-115" value="" style="verticalLabelPosition=bottom;html=1;verticalAlign=top;align=center;strokeWidth=1;shape=mxgraph.floorplan.wall;fillColor=#000000;direction=south;rounded=0;shadow=0;comic=0;fontFamily=Verdana;fontSize=12;" vertex="1" parent="1">
          <mxGeometry x="2157" y="1364" width="10" height="191" as="geometry" />
        </mxCell>
        <mxCell id="n5rFsvowramPieZqeoaz-116" value="" style="verticalLabelPosition=bottom;html=1;verticalAlign=top;align=center;strokeWidth=1;shape=mxgraph.floorplan.wall;fillColor=#000000;rounded=0;shadow=0;comic=0;fontFamily=Verdana;fontSize=12;" vertex="1" parent="1">
          <mxGeometry x="2030" y="1355" width="144" height="10" as="geometry" />
        </mxCell>
        <mxCell id="n5rFsvowramPieZqeoaz-117" value="" style="verticalLabelPosition=bottom;html=1;verticalAlign=top;align=center;strokeWidth=1;shape=mxgraph.floorplan.doorLeft;rounded=0;shadow=0;comic=0;fontFamily=Verdana;fontSize=12;" vertex="1" parent="1">
          <mxGeometry x="2174" y="1358" width="80" height="85" as="geometry" />
        </mxCell>
        <mxCell id="n5rFsvowramPieZqeoaz-118" value="" style="verticalLabelPosition=bottom;html=1;verticalAlign=top;align=center;strokeWidth=1;shape=mxgraph.floorplan.plant;rounded=0;shadow=0;comic=0;fontFamily=Verdana;fontSize=12;" vertex="1" parent="1">
          <mxGeometry x="2173" y="1494" width="47" height="51" as="geometry" />
        </mxCell>
        <mxCell id="n5rFsvowramPieZqeoaz-119" value="" style="verticalLabelPosition=bottom;html=1;verticalAlign=top;align=center;strokeWidth=1;shape=mxgraph.floorplan.dresser;rounded=0;shadow=0;comic=0;fontFamily=Verdana;fontSize=12;rotation=0;" vertex="1" parent="1">
          <mxGeometry x="2057" y="1365" width="100" height="65" as="geometry" />
        </mxCell>
        <mxCell id="n5rFsvowramPieZqeoaz-120" value="" style="verticalLabelPosition=bottom;html=1;verticalAlign=top;align=center;strokeWidth=1;shape=mxgraph.floorplan.dresser;rounded=0;shadow=0;comic=0;fontFamily=Verdana;fontSize=12;rotation=0;" vertex="1" parent="1">
          <mxGeometry x="2281" y="1365" width="100" height="65" as="geometry" />
        </mxCell>
        <mxCell id="n5rFsvowramPieZqeoaz-121" value="" style="verticalLabelPosition=bottom;html=1;verticalAlign=top;align=center;strokeWidth=1;shape=mxgraph.floorplan.wall;fillColor=#000000;rounded=0;shadow=0;comic=0;fontFamily=Verdana;fontSize=12;" vertex="1" parent="1">
          <mxGeometry x="2275" y="1130" width="204" height="10" as="geometry" />
        </mxCell>
        <mxCell id="n5rFsvowramPieZqeoaz-122" value="" style="verticalLabelPosition=bottom;html=1;verticalAlign=top;align=center;strokeWidth=1;shape=mxgraph.floorplan.wall;fillColor=#000000;direction=south;rounded=0;shadow=0;comic=0;fontFamily=Verdana;fontSize=12;" vertex="1" parent="1">
          <mxGeometry x="2265" y="1124" width="10" height="139" as="geometry" />
        </mxCell>
        <mxCell id="n5rFsvowramPieZqeoaz-123" value="" style="verticalLabelPosition=bottom;html=1;verticalAlign=top;align=center;strokeWidth=1;shape=mxgraph.floorplan.wall;fillColor=#000000;rounded=0;shadow=0;comic=0;fontFamily=Verdana;fontSize=12;" vertex="1" parent="1">
          <mxGeometry x="2254" y="1355" width="216" height="10" as="geometry" />
        </mxCell>
        <mxCell id="n5rFsvowramPieZqeoaz-124" value="" style="verticalLabelPosition=bottom;html=1;verticalAlign=top;align=center;strokeWidth=1;shape=mxgraph.floorplan.office_chair;shadow=0;rounded=0;comic=0;fontFamily=Verdana;fontSize=12;rotation=-90;" vertex="1" parent="1">
          <mxGeometry x="2403" y="1466" width="40" height="43" as="geometry" />
        </mxCell>
        <mxCell id="n5rFsvowramPieZqeoaz-125" value="" style="shape=rect;shadow=0;rounded=0;comic=0;fontFamily=Verdana;fontSize=12;align=center;html=1;rotation=-90;" vertex="1" parent="1">
          <mxGeometry x="2384" y="1462" width="124" height="50" as="geometry" />
        </mxCell>
        <mxCell id="n5rFsvowramPieZqeoaz-126" value="" style="verticalLabelPosition=bottom;html=1;verticalAlign=top;align=center;strokeWidth=1;shape=mxgraph.floorplan.workstation;shadow=0;flipV=1;rounded=0;comic=0;fontFamily=Verdana;fontSize=12;rotation=-90;" vertex="1" parent="1">
          <mxGeometry x="2426" y="1467" width="50" height="40" as="geometry" />
        </mxCell>
        <mxCell id="n5rFsvowramPieZqeoaz-127" value="" style="verticalLabelPosition=bottom;html=1;verticalAlign=top;align=center;strokeWidth=1;shape=mxgraph.floorplan.plant;rounded=0;shadow=0;comic=0;fontFamily=Verdana;fontSize=12;" vertex="1" parent="1">
          <mxGeometry x="2410" y="1369" width="47" height="51" as="geometry" />
        </mxCell>
        <mxCell id="n5rFsvowramPieZqeoaz-128" value="" style="verticalLabelPosition=bottom;html=1;verticalAlign=top;align=center;strokeWidth=1;shape=mxgraph.floorplan.wall;fillColor=#000000;direction=south;rounded=0;shadow=0;comic=0;fontFamily=Verdana;fontSize=12;" vertex="1" parent="1">
          <mxGeometry x="2265" y="1344" width="10" height="20" as="geometry" />
        </mxCell>
        <mxCell id="n5rFsvowramPieZqeoaz-129" value="" style="group" vertex="1" connectable="0" parent="1">
          <mxGeometry x="2395" y="1146" width="80" height="70" as="geometry" />
        </mxCell>
        <mxCell id="n5rFsvowramPieZqeoaz-130" value="" style="group;rotation=-90;" vertex="1" connectable="0" parent="n5rFsvowramPieZqeoaz-129">
          <mxGeometry width="80" height="70" as="geometry" />
        </mxCell>
        <mxCell id="n5rFsvowramPieZqeoaz-131" value="" style="verticalLabelPosition=bottom;html=1;verticalAlign=top;align=center;strokeWidth=1;shape=mxgraph.floorplan.office_chair;fillColor=#ffffff;strokeColor=#000000;shadow=0;rounded=0;comic=0;fontFamily=Verdana;fontSize=12;rotation=-90;" vertex="1" parent="n5rFsvowramPieZqeoaz-130">
          <mxGeometry x="7" y="14" width="40" height="43" as="geometry" />
        </mxCell>
        <mxCell id="n5rFsvowramPieZqeoaz-132" value="" style="shape=rect;fillColor=#ffffff;strokeColor=#000000;shadow=0;rounded=0;comic=0;fontFamily=Verdana;fontSize=12;align=center;html=1;rotation=-90;" vertex="1" parent="n5rFsvowramPieZqeoaz-130">
          <mxGeometry x="10" y="10" width="80" height="50" as="geometry" />
        </mxCell>
        <mxCell id="n5rFsvowramPieZqeoaz-133" value="" style="verticalLabelPosition=bottom;html=1;verticalAlign=top;align=center;strokeWidth=1;shape=mxgraph.floorplan.workstation;fillColor=#ffffff;strokeColor=#000000;shadow=0;flipV=1;rounded=0;comic=0;fontFamily=Verdana;fontSize=12;rotation=-90;" vertex="1" parent="n5rFsvowramPieZqeoaz-130">
          <mxGeometry x="30" y="15" width="50" height="40" as="geometry" />
        </mxCell>
        <mxCell id="n5rFsvowramPieZqeoaz-134" value="" style="verticalLabelPosition=bottom;html=1;verticalAlign=top;align=center;strokeWidth=1;shape=mxgraph.floorplan.doorLeft;rounded=0;shadow=0;comic=0;fontFamily=Verdana;fontSize=12;rotation=90;flipV=1;flipH=1;" vertex="1" parent="1">
          <mxGeometry x="2270" y="1261" width="80" height="85" as="geometry" />
        </mxCell>
        <mxCell id="n5rFsvowramPieZqeoaz-135" value="" style="verticalLabelPosition=bottom;html=1;verticalAlign=top;align=center;strokeWidth=1;shape=mxgraph.floorplan.plant;rounded=0;shadow=0;comic=0;fontFamily=Verdana;fontSize=12;" vertex="1" parent="1">
          <mxGeometry x="2420" y="1295" width="47" height="51" as="geometry" />
        </mxCell>
        <mxCell id="n5rFsvowramPieZqeoaz-136" value="" style="verticalLabelPosition=bottom;html=1;verticalAlign=top;align=center;strokeWidth=1;shape=mxgraph.floorplan.dresser;rounded=0;shadow=0;comic=0;fontFamily=Verdana;fontSize=12;rotation=-90;" vertex="1" parent="1">
          <mxGeometry x="2258" y="1158" width="100" height="65" as="geometry" />
        </mxCell>
        <mxCell id="n5rFsvowramPieZqeoaz-137" value="" style="verticalLabelPosition=bottom;html=1;verticalAlign=top;align=center;strokeWidth=1;shape=mxgraph.floorplan.wall;fillColor=#000000;rounded=0;shadow=0;comic=0;fontFamily=Verdana;fontSize=12;" vertex="1" parent="1">
          <mxGeometry x="2275" y="910.0000000000001" width="204" height="10" as="geometry" />
        </mxCell>
        <mxCell id="n5rFsvowramPieZqeoaz-138" value="" style="verticalLabelPosition=bottom;html=1;verticalAlign=top;align=center;strokeWidth=1;shape=mxgraph.floorplan.wall;fillColor=#000000;direction=south;rounded=0;shadow=0;comic=0;fontFamily=Verdana;fontSize=12;" vertex="1" parent="1">
          <mxGeometry x="2265" y="904.0000000000001" width="10" height="139" as="geometry" />
        </mxCell>
        <mxCell id="n5rFsvowramPieZqeoaz-139" value="" style="group" vertex="1" connectable="0" parent="1">
          <mxGeometry x="2395" y="926.0000000000001" width="80" height="70" as="geometry" />
        </mxCell>
        <mxCell id="n5rFsvowramPieZqeoaz-140" value="" style="group;rotation=-90;" vertex="1" connectable="0" parent="n5rFsvowramPieZqeoaz-139">
          <mxGeometry width="80" height="70" as="geometry" />
        </mxCell>
        <mxCell id="n5rFsvowramPieZqeoaz-141" value="" style="verticalLabelPosition=bottom;html=1;verticalAlign=top;align=center;strokeWidth=1;shape=mxgraph.floorplan.office_chair;shadow=0;rounded=0;comic=0;fontFamily=Verdana;fontSize=12;rotation=-90;" vertex="1" parent="n5rFsvowramPieZqeoaz-140">
          <mxGeometry x="7" y="14" width="40" height="43" as="geometry" />
        </mxCell>
        <mxCell id="n5rFsvowramPieZqeoaz-142" value="" style="shape=rect;shadow=0;rounded=0;comic=0;fontFamily=Verdana;fontSize=12;align=center;html=1;rotation=-90;" vertex="1" parent="n5rFsvowramPieZqeoaz-140">
          <mxGeometry x="10" y="10" width="80" height="50" as="geometry" />
        </mxCell>
        <mxCell id="n5rFsvowramPieZqeoaz-143" value="" style="verticalLabelPosition=bottom;html=1;verticalAlign=top;align=center;strokeWidth=1;shape=mxgraph.floorplan.workstation;shadow=0;flipV=1;rounded=0;comic=0;fontFamily=Verdana;fontSize=12;rotation=-90;" vertex="1" parent="n5rFsvowramPieZqeoaz-140">
          <mxGeometry x="30" y="15" width="50" height="40" as="geometry" />
        </mxCell>
        <mxCell id="n5rFsvowramPieZqeoaz-144" value="" style="verticalLabelPosition=bottom;html=1;verticalAlign=top;align=center;strokeWidth=1;shape=mxgraph.floorplan.doorLeft;rounded=0;shadow=0;comic=0;fontFamily=Verdana;fontSize=12;rotation=90;flipV=1;flipH=1;" vertex="1" parent="1">
          <mxGeometry x="2270" y="1041" width="80" height="85" as="geometry" />
        </mxCell>
        <mxCell id="n5rFsvowramPieZqeoaz-145" value="" style="verticalLabelPosition=bottom;html=1;verticalAlign=top;align=center;strokeWidth=1;shape=mxgraph.floorplan.plant;rounded=0;shadow=0;comic=0;fontFamily=Verdana;fontSize=12;" vertex="1" parent="1">
          <mxGeometry x="2420" y="1075" width="47" height="51" as="geometry" />
        </mxCell>
        <mxCell id="n5rFsvowramPieZqeoaz-146" value="" style="verticalLabelPosition=bottom;html=1;verticalAlign=top;align=center;strokeWidth=1;shape=mxgraph.floorplan.dresser;rounded=0;shadow=0;comic=0;fontFamily=Verdana;fontSize=12;rotation=-90;" vertex="1" parent="1">
          <mxGeometry x="2258" y="938.0000000000001" width="100" height="65" as="geometry" />
        </mxCell>
        <mxCell id="n5rFsvowramPieZqeoaz-147" value="" style="verticalLabelPosition=bottom;html=1;verticalAlign=top;align=center;strokeWidth=1;shape=mxgraph.floorplan.wall;fillColor=#000000;rounded=0;shadow=0;comic=0;fontFamily=Verdana;fontSize=12;" vertex="1" parent="1">
          <mxGeometry x="2275" y="690.0000000000001" width="204" height="10" as="geometry" />
        </mxCell>
        <mxCell id="n5rFsvowramPieZqeoaz-148" value="" style="verticalLabelPosition=bottom;html=1;verticalAlign=top;align=center;strokeWidth=1;shape=mxgraph.floorplan.wall;fillColor=#000000;direction=south;rounded=0;shadow=0;comic=0;fontFamily=Verdana;fontSize=12;" vertex="1" parent="1">
          <mxGeometry x="2265" y="684.0000000000001" width="10" height="139" as="geometry" />
        </mxCell>
        <mxCell id="n5rFsvowramPieZqeoaz-149" value="" style="group" vertex="1" connectable="0" parent="1">
          <mxGeometry x="2395" y="706.0000000000001" width="80" height="70" as="geometry" />
        </mxCell>
        <mxCell id="n5rFsvowramPieZqeoaz-150" value="" style="group;rotation=-90;" vertex="1" connectable="0" parent="n5rFsvowramPieZqeoaz-149">
          <mxGeometry width="80" height="70" as="geometry" />
        </mxCell>
        <mxCell id="n5rFsvowramPieZqeoaz-151" value="" style="verticalLabelPosition=bottom;html=1;verticalAlign=top;align=center;strokeWidth=1;shape=mxgraph.floorplan.office_chair;shadow=0;rounded=0;comic=0;fontFamily=Verdana;fontSize=12;rotation=-90;" vertex="1" parent="n5rFsvowramPieZqeoaz-150">
          <mxGeometry x="7" y="14" width="40" height="43" as="geometry" />
        </mxCell>
        <mxCell id="n5rFsvowramPieZqeoaz-152" value="" style="shape=rect;shadow=0;rounded=0;comic=0;fontFamily=Verdana;fontSize=12;align=center;html=1;rotation=-90;" vertex="1" parent="n5rFsvowramPieZqeoaz-150">
          <mxGeometry x="10" y="10" width="80" height="50" as="geometry" />
        </mxCell>
        <mxCell id="n5rFsvowramPieZqeoaz-153" value="" style="verticalLabelPosition=bottom;html=1;verticalAlign=top;align=center;strokeWidth=1;shape=mxgraph.floorplan.workstation;shadow=0;flipV=1;rounded=0;comic=0;fontFamily=Verdana;fontSize=12;rotation=-90;" vertex="1" parent="n5rFsvowramPieZqeoaz-150">
          <mxGeometry x="30" y="15" width="50" height="40" as="geometry" />
        </mxCell>
        <mxCell id="n5rFsvowramPieZqeoaz-154" value="" style="verticalLabelPosition=bottom;html=1;verticalAlign=top;align=center;strokeWidth=1;shape=mxgraph.floorplan.doorLeft;rounded=0;shadow=0;comic=0;fontFamily=Verdana;fontSize=12;rotation=90;flipV=1;flipH=1;" vertex="1" parent="1">
          <mxGeometry x="2270" y="821.0000000000001" width="80" height="85" as="geometry" />
        </mxCell>
        <mxCell id="n5rFsvowramPieZqeoaz-155" value="" style="verticalLabelPosition=bottom;html=1;verticalAlign=top;align=center;strokeWidth=1;shape=mxgraph.floorplan.plant;rounded=0;shadow=0;comic=0;fontFamily=Verdana;fontSize=12;" vertex="1" parent="1">
          <mxGeometry x="2420" y="855.0000000000001" width="47" height="51" as="geometry" />
        </mxCell>
        <mxCell id="n5rFsvowramPieZqeoaz-156" value="" style="verticalLabelPosition=bottom;html=1;verticalAlign=top;align=center;strokeWidth=1;shape=mxgraph.floorplan.dresser;rounded=0;shadow=0;comic=0;fontFamily=Verdana;fontSize=12;rotation=-90;" vertex="1" parent="1">
          <mxGeometry x="2258" y="718.0000000000001" width="100" height="65" as="geometry" />
        </mxCell>
        <mxCell id="n5rFsvowramPieZqeoaz-157" value="" style="verticalLabelPosition=bottom;html=1;verticalAlign=top;align=center;strokeWidth=1;shape=mxgraph.floorplan.wall;fillColor=#000000;direction=south;rounded=0;shadow=0;comic=0;fontFamily=Verdana;fontSize=12;" vertex="1" parent="1">
          <mxGeometry x="2265" y="354.0000000000001" width="10" height="248" as="geometry" />
        </mxCell>
        <mxCell id="n5rFsvowramPieZqeoaz-158" value="" style="verticalLabelPosition=bottom;html=1;verticalAlign=top;align=center;strokeWidth=1;shape=mxgraph.floorplan.doorLeft;rounded=0;shadow=0;comic=0;fontFamily=Verdana;fontSize=12;rotation=90;flipV=1;flipH=1;" vertex="1" parent="1">
          <mxGeometry x="2270" y="600.0000000000001" width="80" height="85" as="geometry" />
        </mxCell>
        <mxCell id="n5rFsvowramPieZqeoaz-159" value="" style="verticalLabelPosition=bottom;html=1;verticalAlign=top;align=center;strokeWidth=1;shape=mxgraph.floorplan.plant;rounded=0;shadow=0;comic=0;fontFamily=Verdana;fontSize=12;" vertex="1" parent="1">
          <mxGeometry x="2420" y="634.0000000000001" width="47" height="51" as="geometry" />
        </mxCell>
        <mxCell id="n5rFsvowramPieZqeoaz-160" value="" style="verticalLabelPosition=bottom;html=1;verticalAlign=top;align=center;strokeWidth=1;shape=mxgraph.floorplan.dresser;rounded=0;shadow=0;comic=0;fontFamily=Verdana;fontSize=12;rotation=0;" vertex="1" parent="1">
          <mxGeometry x="2277" y="360.0000000000001" width="100" height="65" as="geometry" />
        </mxCell>
        <mxCell id="n5rFsvowramPieZqeoaz-161" value="" style="verticalLabelPosition=bottom;html=1;verticalAlign=top;align=center;strokeWidth=1;shape=mxgraph.floorplan.wallCorner;fillColor=#000000;direction=west;rounded=0;shadow=0;comic=0;fontFamily=Verdana;fontSize=12;" vertex="1" parent="1">
          <mxGeometry x="28" y="714.0000000000001" width="202" height="12" as="geometry" />
        </mxCell>
        <mxCell id="n5rFsvowramPieZqeoaz-311" value="" style="edgeStyle=orthogonalEdgeStyle;rounded=0;orthogonalLoop=1;jettySize=auto;html=1;" edge="1" parent="1" source="n5rFsvowramPieZqeoaz-162" target="n5rFsvowramPieZqeoaz-170">
          <mxGeometry relative="1" as="geometry" />
        </mxCell>
        <mxCell id="n5rFsvowramPieZqeoaz-162" value="" style="verticalLabelPosition=bottom;html=1;verticalAlign=top;align=center;strokeWidth=1;shape=mxgraph.floorplan.wall;fillColor=#000000;direction=south;rounded=0;shadow=0;comic=0;fontFamily=Verdana;fontSize=12;" vertex="1" parent="1">
          <mxGeometry x="225" y="360.0000000000001" width="10" height="279" as="geometry" />
        </mxCell>
        <mxCell id="n5rFsvowramPieZqeoaz-163" value="" style="verticalLabelPosition=bottom;html=1;verticalAlign=top;align=center;strokeWidth=1;shape=mxgraph.floorplan.doorLeft;rounded=0;shadow=0;comic=0;fontFamily=Verdana;fontSize=12;rotation=90;flipH=1;" vertex="1" parent="1">
          <mxGeometry x="145" y="631.0000000000001" width="80" height="85" as="geometry" />
        </mxCell>
        <mxCell id="n5rFsvowramPieZqeoaz-164" value="" style="verticalLabelPosition=bottom;html=1;verticalAlign=top;align=center;strokeWidth=1;shape=mxgraph.floorplan.wall;fillColor=#000000;rounded=0;shadow=0;comic=0;fontFamily=Verdana;fontSize=12;" vertex="1" parent="1">
          <mxGeometry x="230" y="590.0000000000001" width="212" height="10" as="geometry" />
        </mxCell>
        <mxCell id="n5rFsvowramPieZqeoaz-165" value="" style="group;rotation=90;" vertex="1" connectable="0" parent="1">
          <mxGeometry x="253" y="371.0000000000001" width="160" height="140" as="geometry" />
        </mxCell>
        <mxCell id="n5rFsvowramPieZqeoaz-166" value="" style="verticalLabelPosition=bottom;html=1;verticalAlign=top;align=center;strokeWidth=1;shape=mxgraph.floorplan.office_chair;shadow=0;rounded=0;comic=0;fontFamily=Verdana;fontSize=12;rotation=90;" vertex="1" parent="n5rFsvowramPieZqeoaz-165">
          <mxGeometry x="109" y="19" width="40" height="43" as="geometry" />
        </mxCell>
        <mxCell id="n5rFsvowramPieZqeoaz-167" value="" style="verticalLabelPosition=bottom;html=1;verticalAlign=top;align=center;strokeWidth=1;shape=mxgraph.floorplan.office_chair;shadow=0;direction=west;rounded=0;comic=0;fontFamily=Verdana;fontSize=12;rotation=90;" vertex="1" parent="n5rFsvowramPieZqeoaz-165">
          <mxGeometry x="12" y="19" width="40" height="43" as="geometry" />
        </mxCell>
        <mxCell id="n5rFsvowramPieZqeoaz-168" value="" style="verticalLabelPosition=bottom;html=1;verticalAlign=top;align=center;strokeWidth=1;shape=mxgraph.floorplan.office_chair;shadow=0;rounded=0;comic=0;fontFamily=Verdana;fontSize=12;rotation=90;" vertex="1" parent="n5rFsvowramPieZqeoaz-165">
          <mxGeometry x="109" y="79" width="40" height="43" as="geometry" />
        </mxCell>
        <mxCell id="n5rFsvowramPieZqeoaz-169" value="" style="verticalLabelPosition=bottom;html=1;verticalAlign=top;align=center;strokeWidth=1;shape=mxgraph.floorplan.office_chair;shadow=0;direction=west;rounded=0;comic=0;fontFamily=Verdana;fontSize=12;rotation=90;" vertex="1" parent="n5rFsvowramPieZqeoaz-165">
          <mxGeometry x="12" y="79" width="40" height="43" as="geometry" />
        </mxCell>
        <mxCell id="n5rFsvowramPieZqeoaz-170" value="" style="shape=rect;shadow=0;rounded=0;comic=0;fontFamily=Verdana;fontSize=12;align=center;html=1;rotation=90;" vertex="1" parent="n5rFsvowramPieZqeoaz-165">
          <mxGeometry y="20" width="160" height="100" as="geometry" />
        </mxCell>
        <mxCell id="n5rFsvowramPieZqeoaz-171" value="" style="verticalLabelPosition=bottom;html=1;verticalAlign=top;align=center;strokeWidth=1;shape=mxgraph.floorplan.office_chair;shadow=0;rounded=0;comic=0;fontFamily=Verdana;fontSize=12;rotation=180;" vertex="1" parent="1">
          <mxGeometry x="103" y="388.0000000000001" width="40" height="43" as="geometry" />
        </mxCell>
        <mxCell id="n5rFsvowramPieZqeoaz-172" value="" style="shape=rect;shadow=0;rounded=0;comic=0;fontFamily=Verdana;fontSize=12;align=center;html=1;rotation=180;" vertex="1" parent="1">
          <mxGeometry x="31" y="360.0000000000001" width="187" height="50" as="geometry" />
        </mxCell>
        <mxCell id="n5rFsvowramPieZqeoaz-173" value="" style="verticalLabelPosition=bottom;html=1;verticalAlign=top;align=center;strokeWidth=1;shape=mxgraph.floorplan.workstation;shadow=0;flipV=1;rounded=0;comic=0;fontFamily=Verdana;fontSize=12;rotation=180;" vertex="1" parent="1">
          <mxGeometry x="98" y="360.0000000000001" width="50" height="40" as="geometry" />
        </mxCell>
        <mxCell id="n5rFsvowramPieZqeoaz-174" value="" style="verticalLabelPosition=bottom;html=1;verticalAlign=top;align=center;strokeWidth=1;shape=mxgraph.floorplan.flat_tv;rounded=0;shadow=0;comic=0;fontFamily=Verdana;fontSize=12;rotation=-35;" vertex="1" parent="1">
          <mxGeometry x="29" y="381.0000000000001" width="70" height="10" as="geometry" />
        </mxCell>
        <mxCell id="n5rFsvowramPieZqeoaz-175" value="" style="verticalLabelPosition=bottom;html=1;verticalAlign=top;align=center;strokeWidth=1;shape=mxgraph.floorplan.flat_tv;rounded=0;shadow=0;comic=0;fontFamily=Verdana;fontSize=12;rotation=30;" vertex="1" parent="1">
          <mxGeometry x="150" y="382.0000000000001" width="70" height="10" as="geometry" />
        </mxCell>
        <mxCell id="n5rFsvowramPieZqeoaz-176" value="" style="group;rotation=-90;" vertex="1" connectable="0" parent="1">
          <mxGeometry x="-29" y="584.0000000000001" width="191" height="71" as="geometry" />
        </mxCell>
        <mxCell id="n5rFsvowramPieZqeoaz-177" value="" style="verticalLabelPosition=bottom;html=1;verticalAlign=top;align=center;strokeWidth=1;shape=mxgraph.floorplan.office_chair;shadow=0;rounded=0;comic=0;fontFamily=Verdana;fontSize=12;rotation=90;" vertex="1" parent="n5rFsvowramPieZqeoaz-176">
          <mxGeometry x="90" y="16" width="40" height="43" as="geometry" />
        </mxCell>
        <mxCell id="n5rFsvowramPieZqeoaz-178" value="" style="shape=rect;shadow=0;rounded=0;comic=0;fontFamily=Verdana;fontSize=12;align=center;html=1;rotation=90;" vertex="1" parent="n5rFsvowramPieZqeoaz-176">
          <mxGeometry x="-8" y="11" width="187" height="50" as="geometry" />
        </mxCell>
        <mxCell id="n5rFsvowramPieZqeoaz-179" value="" style="verticalLabelPosition=bottom;html=1;verticalAlign=top;align=center;strokeWidth=1;shape=mxgraph.floorplan.workstation;shadow=0;flipV=1;rounded=0;comic=0;fontFamily=Verdana;fontSize=12;rotation=90;" vertex="1" parent="n5rFsvowramPieZqeoaz-176">
          <mxGeometry x="55" y="17" width="50" height="40" as="geometry" />
        </mxCell>
        <mxCell id="n5rFsvowramPieZqeoaz-180" value="" style="verticalLabelPosition=bottom;html=1;verticalAlign=top;align=center;strokeWidth=1;shape=mxgraph.floorplan.flat_tv;rounded=0;shadow=0;comic=0;fontFamily=Verdana;fontSize=12;rotation=-125;" vertex="1" parent="n5rFsvowramPieZqeoaz-176">
          <mxGeometry x="51" y="91" width="70" height="10" as="geometry" />
        </mxCell>
        <mxCell id="n5rFsvowramPieZqeoaz-181" value="" style="verticalLabelPosition=bottom;html=1;verticalAlign=top;align=center;strokeWidth=1;shape=mxgraph.floorplan.flat_tv;rounded=0;shadow=0;comic=0;fontFamily=Verdana;fontSize=12;rotation=-60;" vertex="1" parent="n5rFsvowramPieZqeoaz-176">
          <mxGeometry x="52" y="-30" width="70" height="10" as="geometry" />
        </mxCell>
        <mxCell id="n5rFsvowramPieZqeoaz-182" value="" style="verticalLabelPosition=bottom;html=1;verticalAlign=top;align=center;strokeWidth=1;shape=mxgraph.floorplan.plant;rounded=0;shadow=0;comic=0;fontFamily=Verdana;fontSize=12;" vertex="1" parent="1">
          <mxGeometry x="32" y="452.0000000000001" width="47" height="51" as="geometry" />
        </mxCell>
        <mxCell id="n5rFsvowramPieZqeoaz-183" value="" style="verticalLabelPosition=bottom;html=1;verticalAlign=top;align=center;strokeWidth=1;shape=mxgraph.floorplan.dresser;rounded=0;shadow=0;comic=0;fontFamily=Verdana;fontSize=12;rotation=90;" vertex="1" parent="1">
          <mxGeometry x="137" y="494.0000000000001" width="100" height="65" as="geometry" />
        </mxCell>
        <mxCell id="n5rFsvowramPieZqeoaz-184" value="" style="group;rotation=90;" vertex="1" connectable="0" parent="1">
          <mxGeometry x="647" y="372.0000000000001" width="160" height="140" as="geometry" />
        </mxCell>
        <mxCell id="n5rFsvowramPieZqeoaz-185" value="" style="verticalLabelPosition=bottom;html=1;verticalAlign=top;align=center;strokeWidth=1;shape=mxgraph.floorplan.office_chair;shadow=0;rounded=0;comic=0;fontFamily=Verdana;fontSize=12;rotation=90;" vertex="1" parent="n5rFsvowramPieZqeoaz-184">
          <mxGeometry x="109" y="19" width="40" height="43" as="geometry" />
        </mxCell>
        <mxCell id="n5rFsvowramPieZqeoaz-186" value="" style="verticalLabelPosition=bottom;html=1;verticalAlign=top;align=center;strokeWidth=1;shape=mxgraph.floorplan.office_chair;shadow=0;direction=west;rounded=0;comic=0;fontFamily=Verdana;fontSize=12;rotation=90;" vertex="1" parent="n5rFsvowramPieZqeoaz-184">
          <mxGeometry x="12" y="19" width="40" height="43" as="geometry" />
        </mxCell>
        <mxCell id="n5rFsvowramPieZqeoaz-187" value="" style="verticalLabelPosition=bottom;html=1;verticalAlign=top;align=center;strokeWidth=1;shape=mxgraph.floorplan.office_chair;shadow=0;rounded=0;comic=0;fontFamily=Verdana;fontSize=12;rotation=90;" vertex="1" parent="n5rFsvowramPieZqeoaz-184">
          <mxGeometry x="109" y="79" width="40" height="43" as="geometry" />
        </mxCell>
        <mxCell id="n5rFsvowramPieZqeoaz-188" value="" style="verticalLabelPosition=bottom;html=1;verticalAlign=top;align=center;strokeWidth=1;shape=mxgraph.floorplan.office_chair;shadow=0;direction=west;rounded=0;comic=0;fontFamily=Verdana;fontSize=12;rotation=90;" vertex="1" parent="n5rFsvowramPieZqeoaz-184">
          <mxGeometry x="12" y="79" width="40" height="43" as="geometry" />
        </mxCell>
        <mxCell id="n5rFsvowramPieZqeoaz-189" value="" style="shape=rect;shadow=0;rounded=0;comic=0;fontFamily=Verdana;fontSize=12;align=center;html=1;rotation=90;" vertex="1" parent="n5rFsvowramPieZqeoaz-184">
          <mxGeometry y="20" width="160" height="100" as="geometry" />
        </mxCell>
        <mxCell id="n5rFsvowramPieZqeoaz-190" value="" style="verticalLabelPosition=bottom;html=1;verticalAlign=top;align=center;strokeWidth=1;shape=mxgraph.floorplan.doorDouble;rounded=0;shadow=0;comic=0;fontFamily=Verdana;fontSize=12;flipV=1;" vertex="1" parent="1">
          <mxGeometry x="443" y="512.0000000000001" width="160" height="85" as="geometry" />
        </mxCell>
        <mxCell id="n5rFsvowramPieZqeoaz-191" value="" style="verticalLabelPosition=bottom;html=1;verticalAlign=top;align=center;strokeWidth=1;shape=mxgraph.floorplan.office_chair;shadow=0;rounded=0;comic=0;fontFamily=Verdana;fontSize=12;rotation=-90;" vertex="1" parent="1">
          <mxGeometry x="2401" y="465.0000000000001" width="40" height="43" as="geometry" />
        </mxCell>
        <mxCell id="n5rFsvowramPieZqeoaz-192" value="" style="shape=rect;shadow=0;rounded=0;comic=0;fontFamily=Verdana;fontSize=12;align=center;html=1;rotation=-90;" vertex="1" parent="1">
          <mxGeometry x="2377" y="467.0000000000001" width="135" height="50" as="geometry" />
        </mxCell>
        <mxCell id="n5rFsvowramPieZqeoaz-193" value="" style="verticalLabelPosition=bottom;html=1;verticalAlign=top;align=center;strokeWidth=1;shape=mxgraph.floorplan.workstation;shadow=0;flipV=1;rounded=0;comic=0;fontFamily=Verdana;fontSize=12;rotation=-90;" vertex="1" parent="1">
          <mxGeometry x="2424" y="466.0000000000001" width="50" height="40" as="geometry" />
        </mxCell>
        <mxCell id="n5rFsvowramPieZqeoaz-194" value="" style="verticalLabelPosition=bottom;html=1;verticalAlign=top;align=center;strokeWidth=1;shape=mxgraph.floorplan.plant;rounded=0;shadow=0;comic=0;fontFamily=Verdana;fontSize=12;" vertex="1" parent="1">
          <mxGeometry x="2418" y="363.0000000000001" width="47" height="51" as="geometry" />
        </mxCell>
        <mxCell id="n5rFsvowramPieZqeoaz-195" value="" style="verticalLabelPosition=bottom;html=1;verticalAlign=top;align=center;strokeWidth=1;shape=mxgraph.floorplan.wall;fillColor=#000000;rounded=0;shadow=0;comic=0;fontFamily=Verdana;fontSize=12;" vertex="1" parent="1">
          <mxGeometry x="2040" y="590.0000000000001" width="230" height="10" as="geometry" />
        </mxCell>
        <mxCell id="n5rFsvowramPieZqeoaz-196" value="" style="verticalLabelPosition=bottom;html=1;verticalAlign=top;align=center;strokeWidth=1;shape=mxgraph.floorplan.office_chair;shadow=0;rounded=0;comic=0;fontFamily=Verdana;fontSize=12;" vertex="1" parent="1">
          <mxGeometry x="2152" y="404.0000000000001" width="40" height="43" as="geometry" />
        </mxCell>
        <mxCell id="n5rFsvowramPieZqeoaz-197" value="" style="verticalLabelPosition=bottom;html=1;verticalAlign=top;align=center;strokeWidth=1;shape=mxgraph.floorplan.office_chair;shadow=0;direction=west;rounded=0;comic=0;fontFamily=Verdana;fontSize=12;" vertex="1" parent="1">
          <mxGeometry x="2152" y="501.0000000000001" width="40" height="43" as="geometry" />
        </mxCell>
        <mxCell id="n5rFsvowramPieZqeoaz-198" value="" style="verticalLabelPosition=bottom;html=1;verticalAlign=top;align=center;strokeWidth=1;shape=mxgraph.floorplan.office_chair;shadow=0;direction=north;rounded=0;comic=0;fontFamily=Verdana;fontSize=12;" vertex="1" parent="1">
          <mxGeometry x="2102" y="454.0000000000001" width="43" height="40" as="geometry" />
        </mxCell>
        <mxCell id="n5rFsvowramPieZqeoaz-199" value="" style="verticalLabelPosition=bottom;html=1;verticalAlign=top;align=center;strokeWidth=1;shape=mxgraph.floorplan.office_chair;shadow=0;direction=south;rounded=0;comic=0;fontFamily=Verdana;fontSize=12;" vertex="1" parent="1">
          <mxGeometry x="2199" y="454.0000000000001" width="43" height="40" as="geometry" />
        </mxCell>
        <mxCell id="n5rFsvowramPieZqeoaz-200" value="" style="shape=rect;shadow=0;rounded=0;comic=0;fontFamily=Verdana;fontSize=12;align=center;html=1;" vertex="1" parent="1">
          <mxGeometry x="2122" y="424.0000000000001" width="100" height="100" as="geometry" />
        </mxCell>
        <mxCell id="n5rFsvowramPieZqeoaz-201" value="" style="verticalLabelPosition=bottom;html=1;verticalAlign=top;align=center;strokeWidth=1;shape=mxgraph.floorplan.wall;fillColor=#000000;direction=south;rounded=0;shadow=0;comic=0;fontFamily=Verdana;fontSize=12;" vertex="1" parent="1">
          <mxGeometry x="1945" y="350.0000000000001" width="10" height="248" as="geometry" />
        </mxCell>
        <mxCell id="n5rFsvowramPieZqeoaz-202" value="" style="verticalLabelPosition=bottom;html=1;verticalAlign=top;align=center;strokeWidth=1;shape=mxgraph.floorplan.plant;rounded=0;shadow=0;comic=0;fontFamily=Verdana;fontSize=12;" vertex="1" parent="1">
          <mxGeometry x="2043" y="365.0000000000001" width="47" height="51" as="geometry" />
        </mxCell>
        <mxCell id="n5rFsvowramPieZqeoaz-203" value="" style="verticalLabelPosition=bottom;html=1;verticalAlign=top;align=center;strokeWidth=1;shape=mxgraph.floorplan.doorLeft;rounded=0;shadow=0;comic=0;fontFamily=Verdana;fontSize=12;flipV=1;" vertex="1" parent="1">
          <mxGeometry x="1960" y="512.0000000000001" width="80" height="85" as="geometry" />
        </mxCell>
        <mxCell id="n5rFsvowramPieZqeoaz-204" value="" style="verticalLabelPosition=bottom;html=1;verticalAlign=top;align=center;strokeWidth=1;shape=mxgraph.floorplan.wall;fillColor=#000000;rounded=0;shadow=0;comic=0;fontFamily=Verdana;fontSize=12;" vertex="1" parent="1">
          <mxGeometry x="1940" y="590.0000000000001" width="20" height="10" as="geometry" />
        </mxCell>
        <mxCell id="n5rFsvowramPieZqeoaz-205" value="" style="verticalLabelPosition=bottom;html=1;verticalAlign=top;align=center;strokeWidth=1;shape=mxgraph.floorplan.doorRight;rounded=0;shadow=0;comic=0;fontFamily=Verdana;fontSize=12;flipV=1;" vertex="1" parent="1">
          <mxGeometry x="1860" y="512.0000000000001" width="80" height="85" as="geometry" />
        </mxCell>
        <mxCell id="n5rFsvowramPieZqeoaz-206" value="" style="verticalLabelPosition=bottom;html=1;verticalAlign=top;align=center;strokeWidth=1;shape=mxgraph.floorplan.wall;fillColor=#000000;rounded=0;shadow=0;comic=0;fontFamily=Verdana;fontSize=12;" vertex="1" parent="1">
          <mxGeometry x="1720" y="590.0000000000001" width="140" height="10" as="geometry" />
        </mxCell>
        <mxCell id="n5rFsvowramPieZqeoaz-207" value="" style="verticalLabelPosition=bottom;html=1;verticalAlign=top;align=center;strokeWidth=1;shape=mxgraph.floorplan.wall;fillColor=#000000;direction=south;rounded=0;shadow=0;comic=0;fontFamily=Verdana;fontSize=12;" vertex="1" parent="1">
          <mxGeometry x="1725" y="354.0000000000001" width="10" height="244" as="geometry" />
        </mxCell>
        <mxCell id="n5rFsvowramPieZqeoaz-208" value="" style="group;rotation=90;" vertex="1" connectable="0" parent="1">
          <mxGeometry x="1731" y="380.0000000000001" width="80" height="70" as="geometry" />
        </mxCell>
        <mxCell id="n5rFsvowramPieZqeoaz-209" value="" style="verticalLabelPosition=bottom;html=1;verticalAlign=top;align=center;strokeWidth=1;shape=mxgraph.floorplan.office_chair;shadow=0;rounded=0;comic=0;fontFamily=Verdana;fontSize=12;rotation=90;" vertex="1" parent="n5rFsvowramPieZqeoaz-208">
          <mxGeometry x="35" y="14" width="40" height="43" as="geometry" />
        </mxCell>
        <mxCell id="n5rFsvowramPieZqeoaz-210" value="" style="shape=rect;shadow=0;rounded=0;comic=0;fontFamily=Verdana;fontSize=12;align=center;html=1;rotation=90;" vertex="1" parent="n5rFsvowramPieZqeoaz-208">
          <mxGeometry x="-10" y="10" width="80" height="50" as="geometry" />
        </mxCell>
        <mxCell id="n5rFsvowramPieZqeoaz-211" value="" style="verticalLabelPosition=bottom;html=1;verticalAlign=top;align=center;strokeWidth=1;shape=mxgraph.floorplan.workstation;shadow=0;flipV=1;rounded=0;comic=0;fontFamily=Verdana;fontSize=12;rotation=90;" vertex="1" parent="n5rFsvowramPieZqeoaz-208">
          <mxGeometry y="15" width="50" height="40" as="geometry" />
        </mxCell>
        <mxCell id="n5rFsvowramPieZqeoaz-212" value="" style="verticalLabelPosition=bottom;html=1;verticalAlign=top;align=center;strokeWidth=1;shape=mxgraph.floorplan.dresser;rounded=0;shadow=0;comic=0;fontFamily=Verdana;fontSize=12;rotation=-90;" vertex="1" parent="1">
          <mxGeometry x="1718" y="507.0000000000001" width="100" height="65" as="geometry" />
        </mxCell>
        <mxCell id="n5rFsvowramPieZqeoaz-213" value="" style="verticalLabelPosition=bottom;html=1;verticalAlign=top;align=center;strokeWidth=1;shape=mxgraph.floorplan.plant;rounded=0;shadow=0;comic=0;fontFamily=Verdana;fontSize=12;" vertex="1" parent="1">
          <mxGeometry x="1888" y="367.0000000000001" width="47" height="51" as="geometry" />
        </mxCell>
        <mxCell id="n5rFsvowramPieZqeoaz-214" value="" style="verticalLabelPosition=bottom;html=1;verticalAlign=top;align=center;strokeWidth=1;shape=mxgraph.floorplan.doorRight;rounded=0;shadow=0;comic=0;fontFamily=Verdana;fontSize=12;flipV=1;" vertex="1" parent="1">
          <mxGeometry x="1640" y="512.0000000000001" width="80" height="85" as="geometry" />
        </mxCell>
        <mxCell id="n5rFsvowramPieZqeoaz-215" value="" style="verticalLabelPosition=bottom;html=1;verticalAlign=top;align=center;strokeWidth=1;shape=mxgraph.floorplan.wall;fillColor=#000000;rounded=0;shadow=0;comic=0;fontFamily=Verdana;fontSize=12;" vertex="1" parent="1">
          <mxGeometry x="1500" y="590.0000000000001" width="140" height="10" as="geometry" />
        </mxCell>
        <mxCell id="n5rFsvowramPieZqeoaz-216" value="" style="verticalLabelPosition=bottom;html=1;verticalAlign=top;align=center;strokeWidth=1;shape=mxgraph.floorplan.wall;fillColor=#000000;direction=south;rounded=0;shadow=0;comic=0;fontFamily=Verdana;fontSize=12;" vertex="1" parent="1">
          <mxGeometry x="1505" y="354.0000000000001" width="10" height="244" as="geometry" />
        </mxCell>
        <mxCell id="n5rFsvowramPieZqeoaz-217" value="" style="group;rotation=90;" vertex="1" connectable="0" parent="1">
          <mxGeometry x="1511" y="380.0000000000001" width="80" height="70" as="geometry" />
        </mxCell>
        <mxCell id="n5rFsvowramPieZqeoaz-218" value="" style="verticalLabelPosition=bottom;html=1;verticalAlign=top;align=center;strokeWidth=1;shape=mxgraph.floorplan.office_chair;shadow=0;rounded=0;comic=0;fontFamily=Verdana;fontSize=12;rotation=90;" vertex="1" parent="n5rFsvowramPieZqeoaz-217">
          <mxGeometry x="35" y="14" width="40" height="43" as="geometry" />
        </mxCell>
        <mxCell id="n5rFsvowramPieZqeoaz-219" value="" style="shape=rect;shadow=0;rounded=0;comic=0;fontFamily=Verdana;fontSize=12;align=center;html=1;rotation=90;" vertex="1" parent="n5rFsvowramPieZqeoaz-217">
          <mxGeometry x="-10" y="10" width="80" height="50" as="geometry" />
        </mxCell>
        <mxCell id="n5rFsvowramPieZqeoaz-220" value="" style="verticalLabelPosition=bottom;html=1;verticalAlign=top;align=center;strokeWidth=1;shape=mxgraph.floorplan.workstation;shadow=0;flipV=1;rounded=0;comic=0;fontFamily=Verdana;fontSize=12;rotation=90;" vertex="1" parent="n5rFsvowramPieZqeoaz-217">
          <mxGeometry y="15" width="50" height="40" as="geometry" />
        </mxCell>
        <mxCell id="n5rFsvowramPieZqeoaz-221" value="" style="verticalLabelPosition=bottom;html=1;verticalAlign=top;align=center;strokeWidth=1;shape=mxgraph.floorplan.dresser;rounded=0;shadow=0;comic=0;fontFamily=Verdana;fontSize=12;rotation=-90;" vertex="1" parent="1">
          <mxGeometry x="1498" y="507.0000000000001" width="100" height="65" as="geometry" />
        </mxCell>
        <mxCell id="n5rFsvowramPieZqeoaz-222" value="" style="verticalLabelPosition=bottom;html=1;verticalAlign=top;align=center;strokeWidth=1;shape=mxgraph.floorplan.plant;rounded=0;shadow=0;comic=0;fontFamily=Verdana;fontSize=12;" vertex="1" parent="1">
          <mxGeometry x="1668" y="367.0000000000001" width="47" height="51" as="geometry" />
        </mxCell>
        <mxCell id="n5rFsvowramPieZqeoaz-223" value="" style="verticalLabelPosition=bottom;html=1;verticalAlign=top;align=center;strokeWidth=1;shape=mxgraph.floorplan.doorRight;rounded=0;shadow=0;comic=0;fillColor=#FFFFFF;fontFamily=Verdana;fontSize=12;flipV=1;" vertex="1" parent="1">
          <mxGeometry x="1420" y="512.0000000000001" width="80" height="85" as="geometry" />
        </mxCell>
        <mxCell id="n5rFsvowramPieZqeoaz-224" value="" style="verticalLabelPosition=bottom;html=1;verticalAlign=top;align=center;strokeWidth=1;shape=mxgraph.floorplan.wall;fillColor=#000000;rounded=0;shadow=0;comic=0;fontFamily=Verdana;fontSize=12;" vertex="1" parent="1">
          <mxGeometry x="1280" y="590.0000000000001" width="140" height="10" as="geometry" />
        </mxCell>
        <mxCell id="n5rFsvowramPieZqeoaz-225" value="" style="verticalLabelPosition=bottom;html=1;verticalAlign=top;align=center;strokeWidth=1;shape=mxgraph.floorplan.wall;fillColor=#000000;direction=south;rounded=0;shadow=0;comic=0;fontFamily=Verdana;fontSize=12;" vertex="1" parent="1">
          <mxGeometry x="1285" y="354.0000000000001" width="10" height="244" as="geometry" />
        </mxCell>
        <mxCell id="n5rFsvowramPieZqeoaz-226" value="" style="group;rotation=90;" vertex="1" connectable="0" parent="1">
          <mxGeometry x="1291" y="380.0000000000001" width="80" height="70" as="geometry" />
        </mxCell>
        <mxCell id="n5rFsvowramPieZqeoaz-227" value="" style="verticalLabelPosition=bottom;html=1;verticalAlign=top;align=center;strokeWidth=1;shape=mxgraph.floorplan.office_chair;shadow=0;rounded=0;comic=0;fontFamily=Verdana;fontSize=12;rotation=90;" vertex="1" parent="n5rFsvowramPieZqeoaz-226">
          <mxGeometry x="35" y="14" width="40" height="43" as="geometry" />
        </mxCell>
        <mxCell id="n5rFsvowramPieZqeoaz-228" value="" style="shape=rect;shadow=0;rounded=0;comic=0;fontFamily=Verdana;fontSize=12;align=center;html=1;rotation=90;" vertex="1" parent="n5rFsvowramPieZqeoaz-226">
          <mxGeometry x="-10" y="10" width="80" height="50" as="geometry" />
        </mxCell>
        <mxCell id="n5rFsvowramPieZqeoaz-229" value="" style="verticalLabelPosition=bottom;html=1;verticalAlign=top;align=center;strokeWidth=1;shape=mxgraph.floorplan.workstation;shadow=0;flipV=1;rounded=0;comic=0;fontFamily=Verdana;fontSize=12;rotation=90;" vertex="1" parent="n5rFsvowramPieZqeoaz-226">
          <mxGeometry y="15" width="50" height="40" as="geometry" />
        </mxCell>
        <mxCell id="n5rFsvowramPieZqeoaz-230" value="" style="verticalLabelPosition=bottom;html=1;verticalAlign=top;align=center;strokeWidth=1;shape=mxgraph.floorplan.dresser;rounded=0;shadow=0;comic=0;fillColor=#FFFFFF;fontFamily=Verdana;fontSize=12;rotation=-90;" vertex="1" parent="1">
          <mxGeometry x="1278" y="507.0000000000001" width="100" height="65" as="geometry" />
        </mxCell>
        <mxCell id="n5rFsvowramPieZqeoaz-231" value="" style="verticalLabelPosition=bottom;html=1;verticalAlign=top;align=center;strokeWidth=1;shape=mxgraph.floorplan.plant;rounded=0;shadow=0;comic=0;fontFamily=Verdana;fontSize=12;" vertex="1" parent="1">
          <mxGeometry x="1448" y="367.0000000000001" width="47" height="51" as="geometry" />
        </mxCell>
        <mxCell id="n5rFsvowramPieZqeoaz-232" value="" style="verticalLabelPosition=bottom;html=1;verticalAlign=top;align=center;strokeWidth=1;shape=mxgraph.floorplan.doorRight;rounded=0;shadow=0;comic=0;fontFamily=Verdana;fontSize=12;flipV=1;" vertex="1" parent="1">
          <mxGeometry x="1200" y="512.0000000000001" width="80" height="85" as="geometry" />
        </mxCell>
        <mxCell id="n5rFsvowramPieZqeoaz-233" value="" style="verticalLabelPosition=bottom;html=1;verticalAlign=top;align=center;strokeWidth=1;shape=mxgraph.floorplan.wall;fillColor=#000000;rounded=0;shadow=0;comic=0;fontFamily=Verdana;fontSize=12;" vertex="1" parent="1">
          <mxGeometry x="1060" y="590.0000000000001" width="140" height="10" as="geometry" />
        </mxCell>
        <mxCell id="n5rFsvowramPieZqeoaz-234" value="" style="verticalLabelPosition=bottom;html=1;verticalAlign=top;align=center;strokeWidth=1;shape=mxgraph.floorplan.wall;fillColor=#000000;direction=south;rounded=0;shadow=0;comic=0;fontFamily=Verdana;fontSize=12;" vertex="1" parent="1">
          <mxGeometry x="1065" y="354.0000000000001" width="10" height="244" as="geometry" />
        </mxCell>
        <mxCell id="n5rFsvowramPieZqeoaz-235" value="" style="group;rotation=90;" vertex="1" connectable="0" parent="1">
          <mxGeometry x="1071" y="380.0000000000001" width="80" height="70" as="geometry" />
        </mxCell>
        <mxCell id="n5rFsvowramPieZqeoaz-236" value="" style="verticalLabelPosition=bottom;html=1;verticalAlign=top;align=center;strokeWidth=1;shape=mxgraph.floorplan.office_chair;shadow=0;rounded=0;comic=0;fontFamily=Verdana;fontSize=12;rotation=90;" vertex="1" parent="n5rFsvowramPieZqeoaz-235">
          <mxGeometry x="35" y="14" width="40" height="43" as="geometry" />
        </mxCell>
        <mxCell id="n5rFsvowramPieZqeoaz-237" value="" style="shape=rect;shadow=0;rounded=0;comic=0;fontFamily=Verdana;fontSize=12;align=center;html=1;rotation=90;" vertex="1" parent="n5rFsvowramPieZqeoaz-235">
          <mxGeometry x="-10" y="10" width="80" height="50" as="geometry" />
        </mxCell>
        <mxCell id="n5rFsvowramPieZqeoaz-238" value="" style="verticalLabelPosition=bottom;html=1;verticalAlign=top;align=center;strokeWidth=1;shape=mxgraph.floorplan.workstation;shadow=0;flipV=1;rounded=0;comic=0;fontFamily=Verdana;fontSize=12;rotation=90;" vertex="1" parent="n5rFsvowramPieZqeoaz-235">
          <mxGeometry y="15" width="50" height="40" as="geometry" />
        </mxCell>
        <mxCell id="n5rFsvowramPieZqeoaz-239" value="" style="verticalLabelPosition=bottom;html=1;verticalAlign=top;align=center;strokeWidth=1;shape=mxgraph.floorplan.dresser;rounded=0;shadow=0;comic=0;fontFamily=Verdana;fontSize=12;rotation=-90;" vertex="1" parent="1">
          <mxGeometry x="1058" y="507.0000000000001" width="100" height="65" as="geometry" />
        </mxCell>
        <mxCell id="n5rFsvowramPieZqeoaz-240" value="" style="verticalLabelPosition=bottom;html=1;verticalAlign=top;align=center;strokeWidth=1;shape=mxgraph.floorplan.plant;rounded=0;shadow=0;comic=0;fontFamily=Verdana;fontSize=12;" vertex="1" parent="1">
          <mxGeometry x="1228" y="367.0000000000001" width="47" height="51" as="geometry" />
        </mxCell>
        <mxCell id="n5rFsvowramPieZqeoaz-241" value="" style="verticalLabelPosition=bottom;html=1;verticalAlign=top;align=center;strokeWidth=1;shape=mxgraph.floorplan.doorRight;rounded=0;shadow=0;comic=0;fontFamily=Verdana;fontSize=12;flipV=1;" vertex="1" parent="1">
          <mxGeometry x="979" y="512.0000000000001" width="80" height="85" as="geometry" />
        </mxCell>
        <mxCell id="n5rFsvowramPieZqeoaz-242" value="" style="verticalLabelPosition=bottom;html=1;verticalAlign=top;align=center;strokeWidth=1;shape=mxgraph.floorplan.wall;fillColor=#000000;rounded=0;shadow=0;comic=0;fontFamily=Verdana;fontSize=12;" vertex="1" parent="1">
          <mxGeometry x="603" y="590.0000000000001" width="375" height="10" as="geometry" />
        </mxCell>
        <mxCell id="n5rFsvowramPieZqeoaz-243" value="" style="verticalLabelPosition=bottom;html=1;verticalAlign=top;align=center;strokeWidth=1;shape=mxgraph.floorplan.wall;fillColor=#000000;direction=south;rounded=0;shadow=0;comic=0;fontFamily=Verdana;fontSize=12;" vertex="1" parent="1">
          <mxGeometry x="844" y="354.0000000000001" width="10" height="244" as="geometry" />
        </mxCell>
        <mxCell id="n5rFsvowramPieZqeoaz-244" value="" style="group;rotation=90;" vertex="1" connectable="0" parent="1">
          <mxGeometry x="850" y="380.0000000000001" width="80" height="70" as="geometry" />
        </mxCell>
        <mxCell id="n5rFsvowramPieZqeoaz-245" value="" style="verticalLabelPosition=bottom;html=1;verticalAlign=top;align=center;strokeWidth=1;shape=mxgraph.floorplan.office_chair;shadow=0;rounded=0;comic=0;fontFamily=Verdana;fontSize=12;rotation=90;" vertex="1" parent="n5rFsvowramPieZqeoaz-244">
          <mxGeometry x="35" y="14" width="40" height="43" as="geometry" />
        </mxCell>
        <mxCell id="n5rFsvowramPieZqeoaz-246" value="" style="shape=rect;shadow=0;rounded=0;comic=0;fontFamily=Verdana;fontSize=12;align=center;html=1;rotation=90;" vertex="1" parent="n5rFsvowramPieZqeoaz-244">
          <mxGeometry x="-10" y="10" width="80" height="50" as="geometry" />
        </mxCell>
        <mxCell id="n5rFsvowramPieZqeoaz-247" value="" style="verticalLabelPosition=bottom;html=1;verticalAlign=top;align=center;strokeWidth=1;shape=mxgraph.floorplan.workstation;shadow=0;flipV=1;rounded=0;comic=0;fontFamily=Verdana;fontSize=12;rotation=90;" vertex="1" parent="n5rFsvowramPieZqeoaz-244">
          <mxGeometry y="15" width="50" height="40" as="geometry" />
        </mxCell>
        <mxCell id="n5rFsvowramPieZqeoaz-248" value="" style="verticalLabelPosition=bottom;html=1;verticalAlign=top;align=center;strokeWidth=1;shape=mxgraph.floorplan.dresser;rounded=0;shadow=0;comic=0;fontFamily=Verdana;fontSize=12;rotation=-90;" vertex="1" parent="1">
          <mxGeometry x="837" y="507.0000000000001" width="100" height="65" as="geometry" />
        </mxCell>
        <mxCell id="n5rFsvowramPieZqeoaz-249" value="" style="verticalLabelPosition=bottom;html=1;verticalAlign=top;align=center;strokeWidth=1;shape=mxgraph.floorplan.plant;rounded=0;shadow=0;comic=0;fontFamily=Verdana;fontSize=12;" vertex="1" parent="1">
          <mxGeometry x="1007" y="367.0000000000001" width="47" height="51" as="geometry" />
        </mxCell>
        <mxCell id="n5rFsvowramPieZqeoaz-250" value="" style="verticalLabelPosition=bottom;html=1;verticalAlign=top;align=center;strokeWidth=1;shape=mxgraph.floorplan.wall;fillColor=#000000;rounded=0;shadow=0;comic=0;fontFamily=Verdana;fontSize=12;" vertex="1" parent="1">
          <mxGeometry x="480" y="972.0000000000001" width="340" height="10" as="geometry" />
        </mxCell>
        <mxCell id="n5rFsvowramPieZqeoaz-251" value="" style="verticalLabelPosition=bottom;html=1;verticalAlign=top;align=center;strokeWidth=1;shape=mxgraph.floorplan.wall;fillColor=#000000;direction=south;rounded=0;shadow=0;comic=0;fontFamily=Verdana;fontSize=12;" vertex="1" parent="1">
          <mxGeometry x="480" y="736.0000000000001" width="10" height="150" as="geometry" />
        </mxCell>
        <mxCell id="n5rFsvowramPieZqeoaz-252" value="" style="verticalLabelPosition=bottom;html=1;verticalAlign=top;align=center;strokeWidth=1;shape=mxgraph.floorplan.wall;fillColor=#000000;direction=south;rounded=0;shadow=0;comic=0;fontFamily=Verdana;fontSize=12;" vertex="1" parent="1">
          <mxGeometry x="480" y="1068" width="10" height="149" as="geometry" />
        </mxCell>
        <mxCell id="n5rFsvowramPieZqeoaz-253" value="" style="verticalLabelPosition=bottom;html=1;verticalAlign=top;align=center;strokeWidth=1;shape=mxgraph.floorplan.wall;fillColor=#000000;direction=south;rounded=0;shadow=0;comic=0;fontFamily=Verdana;fontSize=12;" vertex="1" parent="1">
          <mxGeometry x="480" y="967.0000000000001" width="10" height="20" as="geometry" />
        </mxCell>
        <mxCell id="n5rFsvowramPieZqeoaz-254" value="" style="verticalLabelPosition=bottom;html=1;verticalAlign=top;align=center;strokeWidth=1;shape=mxgraph.floorplan.doorLeft;rounded=0;shadow=0;comic=0;fontFamily=Verdana;fontSize=12;rotation=-90;" vertex="1" parent="1">
          <mxGeometry x="485" y="884.0000000000001" width="80" height="85" as="geometry" />
        </mxCell>
        <mxCell id="n5rFsvowramPieZqeoaz-255" value="" style="verticalLabelPosition=bottom;html=1;verticalAlign=top;align=center;strokeWidth=1;shape=mxgraph.floorplan.doorRight;rounded=0;shadow=0;comic=0;fontFamily=Verdana;fontSize=12;rotation=-90;" vertex="1" parent="1">
          <mxGeometry x="485" y="985.0000000000001" width="80" height="85" as="geometry" />
        </mxCell>
        <mxCell id="n5rFsvowramPieZqeoaz-256" value="" style="verticalLabelPosition=bottom;html=1;verticalAlign=top;align=center;strokeWidth=1;shape=mxgraph.floorplan.toilet;rounded=0;shadow=0;comic=0;fontFamily=Verdana;fontSize=12;rotation=-90;" vertex="1" parent="1">
          <mxGeometry x="1014" y="761.0000000000001" width="50" height="67" as="geometry" />
        </mxCell>
        <mxCell id="n5rFsvowramPieZqeoaz-257" value="" style="verticalLabelPosition=bottom;html=1;verticalAlign=top;align=center;strokeWidth=1;shape=mxgraph.floorplan.wall;fillColor=#000000;direction=south;rounded=0;shadow=0;comic=0;fontFamily=Verdana;fontSize=12;" vertex="1" parent="1">
          <mxGeometry x="997" y="745.0000000000001" width="10" height="399" as="geometry" />
        </mxCell>
        <mxCell id="n5rFsvowramPieZqeoaz-258" value="" style="verticalLabelPosition=bottom;html=1;verticalAlign=top;align=center;strokeWidth=1;shape=mxgraph.floorplan.toilet;rounded=0;shadow=0;comic=0;fontFamily=Verdana;fontSize=12;rotation=-90;" vertex="1" parent="1">
          <mxGeometry x="1016" y="859.0000000000001" width="50" height="67" as="geometry" />
        </mxCell>
        <mxCell id="n5rFsvowramPieZqeoaz-259" value="" style="verticalLabelPosition=bottom;html=1;verticalAlign=top;align=center;strokeWidth=1;shape=mxgraph.floorplan.wall;fillColor=#000000;rounded=0;shadow=0;comic=0;fontFamily=Verdana;fontSize=12;" vertex="1" parent="1">
          <mxGeometry x="1007" y="838.0000000000001" width="172" height="10" as="geometry" />
        </mxCell>
        <mxCell id="n5rFsvowramPieZqeoaz-260" value="" style="verticalLabelPosition=bottom;html=1;verticalAlign=top;align=center;strokeWidth=1;shape=mxgraph.floorplan.doorLeft;rounded=0;shadow=0;comic=0;fillColor=#FFFFFF;fontFamily=Verdana;fontSize=12;rotation=90;" vertex="1" parent="1">
          <mxGeometry x="1105" y="751.0000000000001" width="80" height="85" as="geometry" />
        </mxCell>
        <mxCell id="n5rFsvowramPieZqeoaz-261" value="" style="verticalLabelPosition=bottom;html=1;verticalAlign=top;align=center;strokeWidth=1;shape=mxgraph.floorplan.doorLeft;rounded=0;shadow=0;comic=0;fillColor=#FFFFFF;fontFamily=Verdana;fontSize=12;rotation=90;" vertex="1" parent="1">
          <mxGeometry x="1105" y="850.0000000000001" width="80" height="85" as="geometry" />
        </mxCell>
        <mxCell id="n5rFsvowramPieZqeoaz-262" value="" style="verticalLabelPosition=bottom;html=1;verticalAlign=top;align=center;strokeWidth=1;shape=mxgraph.floorplan.wallCorner;fillColor=#000000;direction=west;rounded=0;shadow=0;comic=0;fontFamily=Verdana;fontSize=12;" vertex="1" parent="1">
          <mxGeometry x="1000" y="933.0000000000001" width="323" height="14" as="geometry" />
        </mxCell>
        <mxCell id="n5rFsvowramPieZqeoaz-263" value="" style="verticalLabelPosition=bottom;html=1;verticalAlign=top;align=center;strokeWidth=1;shape=mxgraph.floorplan.wall;fillColor=#000000;direction=south;rounded=0;shadow=0;comic=0;fontFamily=Verdana;fontSize=12;" vertex="1" parent="1">
          <mxGeometry x="1179" y="834.0000000000001" width="10" height="18" as="geometry" />
        </mxCell>
        <mxCell id="n5rFsvowramPieZqeoaz-264" value="" style="verticalLabelPosition=bottom;html=1;verticalAlign=top;align=center;strokeWidth=1;shape=mxgraph.floorplan.wall;fillColor=#000000;direction=south;rounded=0;shadow=0;comic=0;fontFamily=Verdana;fontSize=12;" vertex="1" parent="1">
          <mxGeometry x="1179" y="744.0000000000001" width="10" height="9" as="geometry" />
        </mxCell>
        <mxCell id="n5rFsvowramPieZqeoaz-265" value="" style="verticalLabelPosition=bottom;html=1;verticalAlign=top;align=center;strokeWidth=1;shape=mxgraph.floorplan.sink_2;rounded=0;shadow=0;comic=0;fontFamily=Verdana;fontSize=12;rotation=90;" vertex="1" parent="1">
          <mxGeometry x="1275" y="756.0000000000001" width="40" height="35" as="geometry" />
        </mxCell>
        <mxCell id="n5rFsvowramPieZqeoaz-266" value="" style="verticalLabelPosition=bottom;html=1;verticalAlign=top;align=center;strokeWidth=1;shape=mxgraph.floorplan.sink_2;rounded=0;shadow=0;comic=0;fontFamily=Verdana;fontSize=12;rotation=90;" vertex="1" parent="1">
          <mxGeometry x="1275" y="800.0000000000001" width="40" height="35" as="geometry" />
        </mxCell>
        <mxCell id="n5rFsvowramPieZqeoaz-267" value="" style="verticalLabelPosition=bottom;html=1;verticalAlign=top;align=center;strokeWidth=1;shape=mxgraph.floorplan.doorRight;rounded=0;shadow=0;comic=0;fontFamily=Verdana;fontSize=12;rotation=90;" vertex="1" parent="1">
          <mxGeometry x="1238" y="850.0000000000001" width="80" height="85" as="geometry" />
        </mxCell>
        <mxCell id="n5rFsvowramPieZqeoaz-268" value="" style="verticalLabelPosition=bottom;html=1;verticalAlign=top;align=center;strokeWidth=1;shape=mxgraph.floorplan.wallCorner;fillColor=#000000;direction=south;rounded=0;shadow=0;comic=0;fontFamily=Verdana;fontSize=12;" vertex="1" parent="1">
          <mxGeometry x="997" y="738.0000000000001" width="326" height="114" as="geometry" />
        </mxCell>
        <mxCell id="n5rFsvowramPieZqeoaz-269" value="" style="verticalLabelPosition=bottom;html=1;verticalAlign=top;align=center;strokeWidth=1;shape=mxgraph.floorplan.doorLeft;rounded=0;shadow=0;comic=0;fillColor=#FFFFFF;fontFamily=Verdana;fontSize=12;rotation=90;" vertex="1" parent="1">
          <mxGeometry x="1104" y="947.0000000000001" width="80" height="85" as="geometry" />
        </mxCell>
        <mxCell id="n5rFsvowramPieZqeoaz-270" value="" style="verticalLabelPosition=bottom;html=1;verticalAlign=top;align=center;strokeWidth=1;shape=mxgraph.floorplan.wall;fillColor=#000000;direction=south;rounded=0;shadow=0;comic=0;fontFamily=Verdana;fontSize=12;" vertex="1" parent="1">
          <mxGeometry x="1179" y="933.0000000000001" width="10" height="16" as="geometry" />
        </mxCell>
        <mxCell id="n5rFsvowramPieZqeoaz-271" value="" style="verticalLabelPosition=bottom;html=1;verticalAlign=top;align=center;strokeWidth=1;shape=mxgraph.floorplan.wall;fillColor=#000000;rounded=0;shadow=0;comic=0;fontFamily=Verdana;fontSize=12;" vertex="1" parent="1">
          <mxGeometry x="1000" y="1033" width="180" height="10" as="geometry" />
        </mxCell>
        <mxCell id="n5rFsvowramPieZqeoaz-272" value="" style="verticalLabelPosition=bottom;html=1;verticalAlign=top;align=center;strokeWidth=1;shape=mxgraph.floorplan.wall;fillColor=#000000;direction=south;rounded=0;shadow=0;comic=0;fontFamily=Verdana;fontSize=12;" vertex="1" parent="1">
          <mxGeometry x="1179" y="1030" width="10" height="18" as="geometry" />
        </mxCell>
        <mxCell id="n5rFsvowramPieZqeoaz-273" value="" style="verticalLabelPosition=bottom;html=1;verticalAlign=top;align=center;strokeWidth=1;shape=mxgraph.floorplan.doorLeft;rounded=0;shadow=0;comic=0;fillColor=#FFFFFF;fontFamily=Verdana;fontSize=12;rotation=90;" vertex="1" parent="1">
          <mxGeometry x="1104" y="1046" width="80" height="85" as="geometry" />
        </mxCell>
        <mxCell id="n5rFsvowramPieZqeoaz-274" value="" style="verticalLabelPosition=bottom;html=1;verticalAlign=top;align=center;strokeWidth=1;shape=mxgraph.floorplan.wall;fillColor=#000000;direction=south;rounded=0;shadow=0;comic=0;fontFamily=Verdana;fontSize=12;" vertex="1" parent="1">
          <mxGeometry x="1179" y="1124" width="10" height="10" as="geometry" />
        </mxCell>
        <mxCell id="n5rFsvowramPieZqeoaz-275" value="" style="verticalLabelPosition=bottom;html=1;verticalAlign=top;align=center;strokeWidth=1;shape=mxgraph.floorplan.wallCorner;fillColor=#000000;direction=west;rounded=0;shadow=0;comic=0;fontFamily=Verdana;fontSize=12;" vertex="1" parent="1">
          <mxGeometry x="1000" y="1032" width="323" height="110" as="geometry" />
        </mxCell>
        <mxCell id="n5rFsvowramPieZqeoaz-276" value="" style="verticalLabelPosition=bottom;html=1;verticalAlign=top;align=center;strokeWidth=1;shape=mxgraph.floorplan.toilet;rounded=0;shadow=0;comic=0;fontFamily=Verdana;fontSize=12;rotation=-90;" vertex="1" parent="1">
          <mxGeometry x="1016" y="957.0000000000001" width="50" height="67" as="geometry" />
        </mxCell>
        <mxCell id="n5rFsvowramPieZqeoaz-277" value="" style="verticalLabelPosition=bottom;html=1;verticalAlign=top;align=center;strokeWidth=1;shape=mxgraph.floorplan.toilet;rounded=0;shadow=0;comic=0;fontFamily=Verdana;fontSize=12;rotation=-90;" vertex="1" parent="1">
          <mxGeometry x="1016" y="1056" width="50" height="67" as="geometry" />
        </mxCell>
        <mxCell id="n5rFsvowramPieZqeoaz-278" value="" style="verticalLabelPosition=bottom;html=1;verticalAlign=top;align=center;strokeWidth=1;shape=mxgraph.floorplan.sink_2;rounded=0;shadow=0;comic=0;fontFamily=Verdana;fontSize=12;rotation=90;" vertex="1" parent="1">
          <mxGeometry x="1275" y="1049" width="40" height="35" as="geometry" />
        </mxCell>
        <mxCell id="n5rFsvowramPieZqeoaz-279" value="" style="verticalLabelPosition=bottom;html=1;verticalAlign=top;align=center;strokeWidth=1;shape=mxgraph.floorplan.sink_2;rounded=0;shadow=0;comic=0;fontFamily=Verdana;fontSize=12;rotation=90;" vertex="1" parent="1">
          <mxGeometry x="1275" y="1093" width="40" height="35" as="geometry" />
        </mxCell>
        <mxCell id="n5rFsvowramPieZqeoaz-280" value="" style="verticalLabelPosition=bottom;html=1;verticalAlign=top;align=center;strokeWidth=1;shape=mxgraph.floorplan.doorRight;rounded=0;shadow=0;comic=0;fontFamily=Verdana;fontSize=12;rotation=90;flipV=0;flipH=1;" vertex="1" parent="1">
          <mxGeometry x="1238" y="949.0000000000001" width="80" height="85" as="geometry" />
        </mxCell>
        <mxCell id="n5rFsvowramPieZqeoaz-281" value="" style="verticalLabelPosition=bottom;html=1;verticalAlign=top;align=center;strokeWidth=1;shape=mxgraph.floorplan.wall;fillColor=#000000;direction=south;rounded=0;shadow=0;comic=0;fontFamily=Verdana;fontSize=12;" vertex="1" parent="1">
          <mxGeometry x="1313" y="941.0000000000001" width="10" height="10" as="geometry" />
        </mxCell>
        <mxCell id="n5rFsvowramPieZqeoaz-282" value="" style="verticalLabelPosition=bottom;html=1;verticalAlign=top;align=center;strokeWidth=1;shape=mxgraph.floorplan.wall;fillColor=#000000;rounded=0;shadow=0;comic=0;fontFamily=Verdana;fontSize=12;" vertex="1" parent="1">
          <mxGeometry x="1500" y="738.0000000000001" width="220" height="10" as="geometry" />
        </mxCell>
        <mxCell id="n5rFsvowramPieZqeoaz-283" value="" style="verticalLabelPosition=bottom;html=1;verticalAlign=top;align=center;strokeWidth=1;shape=mxgraph.floorplan.chair;shadow=0;rounded=0;comic=0;fontFamily=Verdana;fontSize=12;" vertex="1" parent="1">
          <mxGeometry x="1601" y="787.0000000000001" width="40" height="52" as="geometry" />
        </mxCell>
        <mxCell id="n5rFsvowramPieZqeoaz-284" value="" style="verticalLabelPosition=bottom;html=1;verticalAlign=top;align=center;strokeWidth=1;shape=mxgraph.floorplan.chair;shadow=0;direction=west;rounded=0;comic=0;fontFamily=Verdana;fontSize=12;" vertex="1" parent="1">
          <mxGeometry x="1601" y="875.0000000000001" width="40" height="52" as="geometry" />
        </mxCell>
        <mxCell id="n5rFsvowramPieZqeoaz-285" value="" style="verticalLabelPosition=bottom;html=1;verticalAlign=top;align=center;strokeWidth=1;shape=mxgraph.floorplan.chair;shadow=0;direction=north;rounded=0;comic=0;fontFamily=Verdana;fontSize=12;" vertex="1" parent="1">
          <mxGeometry x="1551" y="837.0000000000001" width="52" height="40" as="geometry" />
        </mxCell>
        <mxCell id="n5rFsvowramPieZqeoaz-286" value="" style="verticalLabelPosition=bottom;html=1;verticalAlign=top;align=center;strokeWidth=1;shape=mxgraph.floorplan.chair;shadow=0;direction=south;rounded=0;comic=0;fontFamily=Verdana;fontSize=12;" vertex="1" parent="1">
          <mxGeometry x="1639" y="837.0000000000001" width="52" height="40" as="geometry" />
        </mxCell>
        <mxCell id="n5rFsvowramPieZqeoaz-287" value="" style="shape=ellipse;shadow=0;rounded=0;comic=0;fontFamily=Verdana;fontSize=12;align=center;html=1;" vertex="1" parent="1">
          <mxGeometry x="1571" y="807.0000000000001" width="100" height="100" as="geometry" />
        </mxCell>
        <mxCell id="n5rFsvowramPieZqeoaz-288" value="" style="verticalLabelPosition=bottom;html=1;verticalAlign=top;align=center;strokeWidth=1;shape=mxgraph.floorplan.chair;shadow=0;rounded=0;comic=0;fontFamily=Verdana;fontSize=12;" vertex="1" parent="1">
          <mxGeometry x="1596" y="976.0000000000001" width="40" height="52" as="geometry" />
        </mxCell>
        <mxCell id="n5rFsvowramPieZqeoaz-289" value="" style="verticalLabelPosition=bottom;html=1;verticalAlign=top;align=center;strokeWidth=1;shape=mxgraph.floorplan.chair;shadow=0;direction=west;rounded=0;comic=0;fontFamily=Verdana;fontSize=12;" vertex="1" parent="1">
          <mxGeometry x="1596" y="1064" width="40" height="52" as="geometry" />
        </mxCell>
        <mxCell id="n5rFsvowramPieZqeoaz-290" value="" style="verticalLabelPosition=bottom;html=1;verticalAlign=top;align=center;strokeWidth=1;shape=mxgraph.floorplan.chair;shadow=0;direction=north;rounded=0;comic=0;fontFamily=Verdana;fontSize=12;" vertex="1" parent="1">
          <mxGeometry x="1546" y="1026" width="52" height="40" as="geometry" />
        </mxCell>
        <mxCell id="n5rFsvowramPieZqeoaz-291" value="" style="verticalLabelPosition=bottom;html=1;verticalAlign=top;align=center;strokeWidth=1;shape=mxgraph.floorplan.chair;shadow=0;direction=south;rounded=0;comic=0;fontFamily=Verdana;fontSize=12;" vertex="1" parent="1">
          <mxGeometry x="1634" y="1026" width="52" height="40" as="geometry" />
        </mxCell>
        <mxCell id="n5rFsvowramPieZqeoaz-292" value="" style="shape=ellipse;shadow=0;rounded=0;comic=0;fontFamily=Verdana;fontSize=12;align=center;html=1;" vertex="1" parent="1">
          <mxGeometry x="1566" y="996.0000000000001" width="100" height="100" as="geometry" />
        </mxCell>
        <mxCell id="n5rFsvowramPieZqeoaz-293" value="" style="verticalLabelPosition=bottom;html=1;verticalAlign=top;align=center;strokeWidth=1;shape=mxgraph.floorplan.refrigerator;rounded=0;shadow=0;comic=0;fontFamily=Verdana;fontSize=12;rotation=90;flipV=0;flipH=1;" vertex="1" parent="1">
          <mxGeometry x="2050" y="809.0000000000001" width="60" height="62" as="geometry" />
        </mxCell>
        <mxCell id="n5rFsvowramPieZqeoaz-294" value="" style="verticalLabelPosition=bottom;html=1;verticalAlign=top;align=center;strokeWidth=1;shape=mxgraph.floorplan.refrigerator;rounded=0;shadow=0;comic=0;fontFamily=Verdana;fontSize=12;rotation=90;" vertex="1" parent="1">
          <mxGeometry x="2050" y="749.0000000000001" width="60" height="62" as="geometry" />
        </mxCell>
        <mxCell id="n5rFsvowramPieZqeoaz-295" value="" style="verticalLabelPosition=bottom;html=1;verticalAlign=top;align=center;strokeWidth=1;shape=mxgraph.floorplan.range_2;rounded=0;shadow=0;comic=0;fontFamily=Verdana;fontSize=12;rotation=90;" vertex="1" parent="1">
          <mxGeometry x="2043" y="878.0000000000001" width="75" height="62" as="geometry" />
        </mxCell>
        <mxCell id="n5rFsvowramPieZqeoaz-296" value="" style="verticalLabelPosition=bottom;html=1;verticalAlign=top;align=center;strokeWidth=1;shape=mxgraph.floorplan.sink_double;rounded=0;shadow=0;comic=0;fontFamily=Verdana;fontSize=12;flipV=1;" vertex="1" parent="1">
          <mxGeometry x="1919" y="995.0000000000001" width="80" height="35" as="geometry" />
        </mxCell>
        <mxCell id="n5rFsvowramPieZqeoaz-297" value="" style="verticalLabelPosition=bottom;html=1;verticalAlign=top;align=center;strokeWidth=1;shape=mxgraph.floorplan.dresser;rounded=0;shadow=0;comic=0;fontFamily=Verdana;fontSize=12;flipV=1;" vertex="1" parent="1">
          <mxGeometry x="1819" y="979.0000000000001" width="100" height="65" as="geometry" />
        </mxCell>
        <mxCell id="n5rFsvowramPieZqeoaz-298" value="" style="verticalLabelPosition=bottom;html=1;verticalAlign=top;align=center;strokeWidth=1;shape=mxgraph.floorplan.wallCorner;fillColor=#000000;direction=north;rounded=0;shadow=0;comic=0;fontFamily=Verdana;fontSize=12;" vertex="1" parent="1">
          <mxGeometry x="1808" y="924.0000000000001" width="312" height="120" as="geometry" />
        </mxCell>
        <mxCell id="n5rFsvowramPieZqeoaz-299" value="" style="verticalLabelPosition=bottom;html=1;verticalAlign=top;align=center;strokeWidth=1;shape=mxgraph.floorplan.doorLeft;rounded=0;shadow=0;comic=0;fontFamily=Verdana;fontSize=12;" vertex="1" parent="1">
          <mxGeometry x="1821" y="740.0000000000001" width="80" height="85" as="geometry" />
        </mxCell>
        <mxCell id="n5rFsvowramPieZqeoaz-300" value="" style="verticalLabelPosition=bottom;html=1;verticalAlign=top;align=center;strokeWidth=1;shape=mxgraph.floorplan.doorRight;rounded=0;shadow=0;comic=0;fontFamily=Verdana;fontSize=12;rotation=-90;" vertex="1" parent="1">
          <mxGeometry x="1813" y="841.0000000000001" width="80" height="85" as="geometry" />
        </mxCell>
        <mxCell id="n5rFsvowramPieZqeoaz-301" value="" style="verticalLabelPosition=bottom;html=1;verticalAlign=top;align=center;strokeWidth=1;shape=mxgraph.floorplan.doorRight;rounded=0;shadow=0;comic=0;fontFamily=Verdana;fontSize=12;rotation=-90;" vertex="1" parent="1">
          <mxGeometry x="1949" y="1048" width="80" height="78" as="geometry" />
        </mxCell>
        <mxCell id="n5rFsvowramPieZqeoaz-302" value="" style="verticalLabelPosition=bottom;html=1;verticalAlign=top;align=center;strokeWidth=1;shape=mxgraph.floorplan.sink_1;rounded=0;shadow=0;comic=0;fontFamily=Verdana;fontSize=12;rotation=90;" vertex="1" parent="1">
          <mxGeometry x="2074" y="1068" width="40" height="35" as="geometry" />
        </mxCell>
        <mxCell id="n5rFsvowramPieZqeoaz-303" value="" style="verticalLabelPosition=bottom;html=1;verticalAlign=top;align=center;strokeWidth=1;shape=mxgraph.floorplan.wall;fillColor=#000000;rounded=0;shadow=0;comic=0;fontFamily=Verdana;fontSize=12;" vertex="1" parent="1">
          <mxGeometry x="1801" y="738.0000000000001" width="20" height="10" as="geometry" />
        </mxCell>
        <mxCell id="n5rFsvowramPieZqeoaz-304" value="" style="verticalLabelPosition=bottom;html=1;verticalAlign=top;align=center;strokeWidth=1;shape=mxgraph.floorplan.doorRight;rounded=0;shadow=0;comic=0;fontFamily=Verdana;fontSize=12;" vertex="1" parent="1">
          <mxGeometry x="1721" y="740.0000000000001" width="80" height="85" as="geometry" />
        </mxCell>
        <mxCell id="n5rFsvowramPieZqeoaz-305" value="" style="verticalLabelPosition=bottom;html=1;verticalAlign=top;align=center;strokeWidth=1;shape=mxgraph.floorplan.wall;fillColor=#000000;direction=south;rounded=0;shadow=0;comic=0;fontFamily=Verdana;fontSize=12;" vertex="1" parent="1">
          <mxGeometry x="1808" y="744.0000000000001" width="10" height="100" as="geometry" />
        </mxCell>
        <mxCell id="n5rFsvowramPieZqeoaz-306" value="" style="verticalLabelPosition=bottom;html=1;verticalAlign=top;align=center;strokeWidth=1;shape=mxgraph.floorplan.wall;fillColor=#000000;direction=south;rounded=0;shadow=0;comic=0;fontFamily=Verdana;fontSize=12;" vertex="1" parent="1">
          <mxGeometry x="1947" y="1034" width="10" height="13" as="geometry" />
        </mxCell>
        <mxCell id="n5rFsvowramPieZqeoaz-307" value="" style="verticalLabelPosition=bottom;html=1;verticalAlign=top;align=center;strokeWidth=1;shape=mxgraph.floorplan.wall;fillColor=#000000;direction=south;rounded=0;shadow=0;comic=0;fontFamily=Verdana;fontSize=12;" vertex="1" parent="1">
          <mxGeometry x="1948" y="1127" width="10" height="13" as="geometry" />
        </mxCell>
        <mxCell id="n5rFsvowramPieZqeoaz-308" value="" style="verticalLabelPosition=bottom;html=1;verticalAlign=top;align=center;strokeWidth=1;shape=mxgraph.floorplan.office_chair;shadow=0;rounded=0;comic=0;fontFamily=Verdana;fontSize=12;" vertex="1" parent="1">
          <mxGeometry x="1014" y="1479" width="40" height="43" as="geometry" />
        </mxCell>
        <mxCell id="n5rFsvowramPieZqeoaz-309" value="" style="shape=rect;shadow=0;rounded=0;comic=0;fontFamily=Verdana;fontSize=12;align=center;html=1;" vertex="1" parent="1">
          <mxGeometry x="994" y="1499" width="80" height="50" as="geometry" />
        </mxCell>
        <mxCell id="n5rFsvowramPieZqeoaz-310" value="" style="verticalLabelPosition=bottom;html=1;verticalAlign=top;align=center;strokeWidth=1;shape=mxgraph.floorplan.workstation;shadow=0;flipV=1;rounded=0;comic=0;fontFamily=Verdana;fontSize=12;" vertex="1" parent="1">
          <mxGeometry x="1009" y="1509" width="50" height="40" as="geometry" />
        </mxCell>
        <mxCell id="n5rFsvowramPieZqeoaz-312" value="" style="edgeStyle=orthogonalEdgeStyle;rounded=0;orthogonalLoop=1;jettySize=auto;html=1;" edge="1" parent="1" source="n5rFsvowramPieZqeoaz-189" target="n5rFsvowramPieZqeoaz-242">
          <mxGeometry relative="1" as="geometry" />
        </mxCell>
      </root>
    </mxGraphModel>
  </diagram>
</mxfile>
